/* XPM */
static char *e88589d7acaa47a8fc1697ebcd231e34ZInzGi3gzV6q9IMj[] = {
/* columns rows colors chars-per-pixel */
"60 60 120 2 ",
"   c #020203",
".  c #090706",
"X  c #0A0807",
"o  c #02040B",
"O  c #080609",
"+  c #05090D",
"@  c #0D0A0B",
"#  c #110E0D",
"$  c #13100F",
"%  c #030613",
"&  c #040915",
"*  c #0A0C14",
"=  c #050B1B",
"-  c #090F1D",
";  c #120E13",
":  c #140F18",
">  c #161212",
",  c #1A1616",
"<  c #1C1817",
"1  c #171219",
"2  c #1A151C",
"3  c #1E191C",
"4  c #221D1D",
"5  c #26211F",
"6  c #060F22",
"7  c #080F21",
"8  c #061025",
"9  c #081023",
"0  c #071229",
"q  c #08132D",
"w  c #1D1720",
"e  c #1E1920",
"r  c #081635",
"t  c #091738",
"y  c #09183A",
"u  c #221D23",
"i  c #261F29",
"p  c #262124",
"a  c #2A2424",
"s  c #2F2927",
"d  c #2B242B",
"f  c #2F282B",
"g  c #332D2C",
"h  c #37302F",
"j  c #38312F",
"k  c #2D2531",
"l  c #302733",
"z  c #332B33",
"x  c #352D39",
"c  c #382E3C",
"v  c #373033",
"b  c #3B3434",
"n  c #3F3837",
"m  c #3B323C",
"M  c #413A37",
"N  c #40373D",
"B  c #433B3C",
"V  c #483F3F",
"C  c #49413F",
"Z  c #3A2F41",
"A  c #3E3343",
"S  c #403644",
"D  c #443B44",
"F  c #483F44",
"G  c #423749",
"H  c #453A4A",
"J  c #493E4D",
"K  c #473A52",
"L  c #4B3E53",
"P  c #4C4344",
"I  c #4C424C",
"U  c #504745",
"Y  c #504844",
"T  c #51464B",
"R  c #554B4B",
"E  c #584F4D",
"W  c #5B524E",
"Q  c #4E4154",
"!  c #4F4258",
"~  c #514455",
"^  c #554A54",
"/  c #594E54",
"(  c #534559",
")  c #55485A",
"_  c #5A4D5B",
"`  c #5E5354",
"'  c #5E515C",
"]  c #615655",
"[  c #635956",
"{  c #62555C",
"}  c #665A5C",
"|  c #695E5C",
" . c #6D615E",
".. c #5F5260",
"X. c #615460",
"o. c #665961",
"O. c #6A5D63",
"+. c #6C5F68",
"@. c #6D6163",
"#. c #6F6169",
"$. c #726564",
"%. c #756966",
"&. c #786D67",
"*. c #72656A",
"=. c #76696A",
"-. c #7A6D6B",
";. c #7E716D",
":. c #7C6E71",
">. c #7E7172",
",. c #81746F",
"<. c #837573",
"1. c #867974",
"2. c #897B76",
"3. c #877978",
"4. c #8A7C7A",
"5. c #8E807B",
"6. c #91837C",
"7. c #948580",
"8. c #978884",
"9. c #988983",
/* pixels */
") ) ) ( ( ! ( ! ( L ( ! ! ( ( ) ) ) ( ) ( ( ( ~ ( L ( L ( ( ) ) ) ( ! ! L ! ! ( ! ! ! ( ( ( ( ( ) ) ) ) ) ( ) ) ) ( ) ) ",
") ) ) ( ( ( ( ( ( ) ( ( ( ( ( ( ) ) ) ) ) ) ( ( ( ( ( ) ( ( ( ) ) ( ( Q ! ( ( ( ( ( ( ( ) ) ( ) ) ) ) ) ) ) ) ) ) ) ) ) ",
"( ) ) _ _ .._ _ _ _ _ _ _ _ _ _ ) ) ) ) _ ) _ _ .._ { _ _ _ ) ) ) _ ..X......._ _ .._ .._ _ _ ( ) ) ) ( ) ) ) ) ) ) ) ) ",
"( ) ) ' X.o.O.O.O.O.O.O.+.o.X._ ) ) ( ( ( / _ { { o.o.{ { _ ( ( ( ' O.*.=.*.@.O.O.O.O.O.} { _ _ ) ( ( ( ( ( ) ( ) ( ) ) ",
"( ( _ X.O.*.=.=.$.%.%.=.=.*.O.X.) ) ~ ~ T ^ / ] }  .| ] / ^ I H I / @.>.2.;.=.%.=.-.-.%.@.O.{ _ ) ) ( L ( ( ) ( ) ) ( ) ",
"( ( _ O.=.;.,.;.;.,.,.,.,.-.$.o.) ( Q ^ R T R E W [ [ ] R P B S J ` $.<.<.;.-.&.;.>.;.%.@.| } ' _ ) ) ) ( ( ) ) ) ) ) ) ",
"! ! ..@.;.2.2.2.1.1.1.1.1.,.$.{ ~ L I ^ R U V C Y W W W P n v m F / | =.%.| } $.-.;.-. .] } ` / ' ...._ _ _ ) ) ) ) ) ) ",
"! ( ' *.<.5.6.6.6.2.1.,.;.%.} ^ H A S P V v g j M M M M n v d p d v D T R B V ^ { } | ] ` ' _ _ { O.+.O.o..._ ) ) ) ) ) ",
"L ! X.*.3.7.8.8.7.5.<.;.$.[ E D z l f g g < < a s 4 3 p a a < @   ; 3 d d e i v F F T R / / / _ { $.*.=.$.{ _ / ) ) ) ) ",
"L ( X.*.3.7.8.8.7.7.2.;. .` V g u e 3 5 < $ @ # # . . O @ $ @         O O O * 2 i f m N J L ( _ O.=.,.,.&.O.{ _ _ ) ) ) ",
"! ( ..#.>.3.4.4.4.3.;.$.` P z 4 * # @ @ @ + o o     o         o               . ; 4 d f c G L ( { =.,.,.-.$.O.} ..) ( ( ",
"( ( _ X.O.#.*.*.#.*.{ I N v u *           = 6 & & & & & & & = = = = = = %         ; 1 1 i c H T { | &.,.,.-.%.@.} _ ( ( ",
"( ) ) ) _ ) ) ) ^ ~ D l e e @       o   % 6 q 8 0 8 0 8 q 0 0 8 8 0 0 0 6 %       o O O : i A H R ]  .;.,.,.-.=.+._ ( L ",
") ( ( ) ) Q I Q J A l i 1 O       % = % 6 q r r r r r r r r r r r r r r q 6 & = & o     o u x S T R ] $.-.,.;.*.O._ ( ( ",
"( ( ) ..X.` ^ ^ P v p 3 @       % 6 q 0 q t y y t t y y y y y y t y y y t q 0 0 6 %       ; i l S D U `  .$.$.@.X._ ( ( ",
"! ( _ O.@.O.` R n z u @       % 6 r r r r t t t t t t t y r t t t t t t t t r r r 6 %       @ 2 d z S T / { { X...) ) ( ",
"Q ! ..*.-.&.[ C g a >       % 6 r r y y t t t t t t t t t t t t t t t t t t y y t r 6 % o       : u z A H J Q ~ ) ) ) ) ",
"L ( ..=.<.1. .b < > .     % 0 r t t y y t t t t t t t t t t t t t t t t t t t t t t r 0 &       O 2 d l m S H J Q ( ) ) ",
"L K ' $.-.%.R s @ X   o = 0 r r y r y r t t t t t t t t t t t t t t t t t t t t t y r r 6 &       O 3 p z m S H J ( ) ) ",
"H G I }  .R j 4 X . % & 0 q t t y y y y t t t t t t t t t t t t t t t t t t t t t t t r r 0 = o     . 1 g n D D J ~ ( ) ",
"K G I T P n 4 @   % = q r r y t y r t t t t t t t t t t t t t t t t t t t t t t t t t y r r 0 6 o     @ a n P I ~ ~ ~ ( ",
"L L H B g a $   o = q r t t y t y y t t t t t t t t t t t t t t t t t t t t t t t t t t t t r 0 & o     3 B T T ^ ~ Q ( ",
"Q Q J B f >       = 0 r y t t t r t t t t t t t t t t t t t t t t t t t t t t t t t t t t y r 0 &       > g P I T Q J ( ",
"Q Q J A d       o = q r y t t t y t t t t t t t t t t t t t t t t t t t t t t y t t t t t y r 0 = o     X 4 h V P J H ( ",
"I Q G z w   o % 6 0 r r y y t t t t t t t t t t t t t t t t t t t t t t t t t r t t t t y y r r q 6 % o   , g n F J H ( ",
"H H m d ;   o = 0 r y y t t t t t t t t t t t t t t t t t t t t t t t t t t t t t t t t y r y y r q = o   > f n P I J Q ",
"H D x e O   o = 0 r y y t t t t t t t t t t t t t t t t t t t t t t t t t t t t t t t t r y y y r q = o   # g Y / I G ! ",
"J A k 1     o = 0 r y y t t t t t t t t t t t t t t t t r t t t t t t t t t t t t t t y r y r y r 0 = o   $ h W ' I A L ",
"J A l 2 .   o = 0 r y r y y t t t t t t t t t t t t t t y t t t t t t t t t t t t t t t y r y y r 0 = * # < g B P I H Q ",
"J A l u @   o = 0 r y y t r t t t t t t t t t t t t t t t t t t t t t t t t t t t t t t y r y y r q = * # < s n D J H Q ",
"L m z a >   o = 0 r y t t t t t t t t t t t t t t t t t t t t t t t t t t t t t t t t t y y y y r 0 = %   # u N J F G ~ ",
"L A z d < @ % = 0 r y t t t t t t t t t t t t t t t t t t t t t t t t t t t t t t t t t y r y y r 0 = +   O 2 z H G S ) ",
"L H m d < @ * - 0 r t t t t t t t t t t t t t t t t t t t t t t t t t t t t t t t t t t t t t y r 0 = %     ; i Z S D ) ",
"H A m a $ X % - 0 q r t t t t t t t t t t t t t t t t t t t t t t t t t t t t t t t t t t t t r q 0 9 %   . : i A G L ) ",
"A c z 3 @   o = 8 9 0 r t t t t t t t t t t t t t t t t t t t t t t t t t t t t t t t t t y r 0 8 8 9 % o O 1 k S L ) ) ",
"Z x z p $   % = 8 9 8 r y t t t t t t t t t t t t t t t t t t t t t t t t t t t t t t t t t r 0 = 9 7 & O O 2 l D Q ~ ) ",
"Z Z z d < # & 9 6 6 0 r y t t t t t t t t t t t t t t t t t t t t t t t t t t t t t t t t y r 0 6 9 = & . O 2 x J J L ) ",
"G Z z z p > O % & 6 8 0 r t t t t t t t t t t t t t t t t t t t t t t t t t t t t t t y r r q 8 6 7 -     > d A J ~ ~ ) ",
"Q A c m d ;     o 6 8 6 8 r t t t t t t t t t t t t t t t t t t t t t t t t t t t t t t r 0 6 6 9 * .     4 v D ~ ^ ( ) ",
"Q D A A d ;     o 6 8 6 8 0 r t y t t t t t t t t t t t t t t t t t t t t t t t t y t q 0 8 6 8 = * .   # u v H ~ ~ ~ ) ",
"~ J G S l 1 O   o = 6 6 6 6 0 q r t t t t t t t t t t t t t t t y r y r r y y y t t r 8 6 6 6 6 = * X , 5 s n T ^ ~ L ( ",
"Q J G S x i :     o = 6 6 6 6 0 r r y y t t t t t t t t t t t t t y y y y y y y r r 0 6 6 8 9 = * + $ 5 j b P ` { ) Q ( ",
"( J G S Z x i : o     & 6 6 6 6 8 r y r r t t t t t t t t t t t t t y y y r r r r 6 6 6 6 6 = + . X 5 b Y E [ @.o._ L ( ",
"( ~ J S Z c l u ; o   o = 6 6 6 6 0 0 0 q t y y y y y y y y y t y y y y r q 0 0 0 6 6 8 6 =     . 5 b C [  .&.%.O._ ( L ",
"( ( Q D S D c l 2 ; O     = 6 8 6 6 6 = 0 q r r r r r r r r r r r r r y r 8 = 6 6 6 6 7 & o     > b R ] $.,.4.:.@...( L ",
"( ^ ~ J H T D f u 4 ;     % - 9 6 6 6 6 6 0 0 8 0 0 8 0 0 0 0 6 6 0 0 0 8 6 9 6 6 0 6 - o     > v R [  .$.<.4.<.*.X.( L ",
") ) ) T T ^ ~ N z f u @     o & 6 6 8 6 6 6 6 6 6 6 6 6 6 6 6 6 6 6 6 = 6 6 9 8 6 = - +     . u V W $.-.,.1.4.3.*.X.( L ",
"( ) ) ~ ^ } } ] T B g 2 .       % 6 8 8 8 6 6 6 6 6 6 6 6 6 6 6 6 6 6 6 6 8 8 8 9 &       . ; d D R | 2.6.2.3.<.*...( L ",
"( ( _ _ {  .@.| ] U M j 4 O       & = & = 6 6 6 8 6 6 6 8 6 6 0 6 6 6 8 6 = & 6 =   . X > < a n ^ T { >.3.>.:.*.+._ ( ( ",
"( ( _ X.| @. .| ] E F F c u @ X o       % 6 0 6 8 8 8 8 8 8 6 6 6 0 6 0 6 %   o     X 5 g h B E ` ^ / o.O.#.+.o..._ ( ( ",
"! ( _ O.%.&.-.%. .] E R B z 4 1 @ O       & = & & & = & & & = = = = & & %       X X < g C Y [  .O.^ Q ! ) ) ) ) ) ) ) ( ",
"! ( ' +.-.1.1.,.&. .` R F N z i 2 u ;     o +                 o o             . $ 4 g M E  .&.-.@._ Q H L Q ! ( ( ( ) ) ",
"L L ..*.1.4.6.4.,.%.| } ^ U N c l l d 4 3 a 4 . . > > .   . O @ O   . > , # > p g M C E [ $.%.O.{ _ ~ L ! ) ^ ) ) ) ) ) ",
"( ( X.=.4.7.6.6.1.,.%.$.} ^ J J S m N P P U b 4 4 j h $ # 4 4 , ; @ > d v g v C R W [  .$.@.| / ^ ) ) ~ _ ' ' ' _ ) ) ) ",
"L ( X.*.4.6.9.6.3.,.%.O.} / ( L J J T |  .W P b b C B s a h v f p e w i v I ` [ |  .$. . .} ` / ^ ) ) _ _ { { { ..) ) ( ",
"L ( ..+.<.3.4.<.-.%.@.{ ` ' ) ( Q I / $.&.[ R R R W R V B V V D m l k k A ` $. . .$.$.@.{ ` _ ^ ( ) ( _ _ _ { ' _ ) ( ) ",
"( ( ..X.#.:.*.*.+.+.X..._ _ ) ( ~ Q ^ O.@.{ / / ` ` ` _ ^ I P H D A A S Q ^ ` } } } o.} X._ _ ) ^ ) ) ) _ _ _ _ ) ) ) ) ",
") ( ) ....X......._ _ _ ) ) ) ( ( ~ ~ ' _ _ ^ ^ ^ ^ _ ' ' Q I I Q Q Q ) ) ~ ~ ^ _ _ _ _ _ _ ) ) ) ) ) ) ) ) ) _ ) ) ) ) ",
") ) ( ( ( ! L ( ( ( ( ( ) ) ) ) ) ( ~ ~ ! Q L Q Q ! Q ( ( Q ! ( ( ( ~ ) ( Q Q Q Q ! ( ( ( ) ( ) ) ) ) ) ) ) ) ( ) ( ) ) ",
") ) ( ( ( L ! L L L ( ( ( ) ) ) ) ) ( Q L Q L L L Q ! ! ( ( ( ( ) ) ) ) ( ( Q L ! L ! ( ( ( ( ( ) ) ) ) ( ) ( ( ( ) ) ) "
};
