/* XPM */
static char *_efd5c9194eb47dbeafe19c767c58e94BNM4ab6XabCY7eUp[] = {
/* columns rows colors chars-per-pixel */
"60 60 108 2 ",
"   c None",
".  c black",
"X  c #000001",
"o  c #000102",
"O  c #000103",
"+  c #000104",
"@  c #010204",
"#  c #010205",
"$  c #010206",
"%  c #010207",
"&  c #010208",
"*  c #01030A",
"=  c #01030B",
"-  c #01030C",
";  c #01030D",
":  c #01040C",
">  c #01040D",
",  c #02040C",
"<  c #02040F",
"1  c #020511",
"2  c #020512",
"3  c #020612",
"4  c #020614",
"5  c #030714",
"6  c #020715",
"7  c #030715",
"8  c #030716",
"9  c #030814",
"0  c #030816",
"q  c #030817",
"w  c #040916",
"e  c #040917",
"r  c #030818",
"t  c #030919",
"y  c #03091A",
"u  c #040918",
"i  c #040919",
"p  c #040A18",
"a  c #04091A",
"s  c #040A1A",
"d  c #050B1A",
"f  c #040A1B",
"g  c #040B1B",
"h  c #050B1B",
"j  c #040A1C",
"k  c #040B1C",
"l  c #040A1D",
"z  c #040B1D",
"x  c #050C1C",
"c  c #040C1D",
"v  c #050C1D",
"b  c #050C1E",
"n  c #050C1F",
"m  c #050D1F",
"M  c #060D1E",
"N  c #060E1F",
"B  c #050D20",
"V  c #050D21",
"C  c #060E20",
"Z  c #060E21",
"A  c #060F21",
"S  c #050E22",
"D  c #060E22",
"F  c #060F22",
"G  c #060E23",
"H  c #060F23",
"J  c #060F24",
"K  c #060F25",
"L  c #061024",
"P  c #061025",
"I  c #071025",
"U  c #071125",
"Y  c #061026",
"T  c #071026",
"R  c #071126",
"E  c #061027",
"W  c #071127",
"Q  c #071128",
"!  c #071129",
"~  c #071229",
"^  c #07112A",
"/  c #07122A",
"(  c #07122B",
")  c #07122C",
"_  c #07132E",
"`  c #07132F",
"'  c #08122B",
"]  c #08132B",
"[  c #08132D",
"{  c #08132F",
"}  c #08142F",
"|  c #081430",
" . c #081431",
".. c #081531",
"X. c #081432",
"o. c #081532",
"O. c #081533",
"+. c #081534",
"@. c #081634",
"#. c #081635",
"$. c #091635",
"%. c #091636",
"&. c #091637",
"*. c #091737",
"=. c #091738",
"-. c #091739",
";. c #091839",
":. c #09183A",
/* pixels */
"                                                                                                                        ",
"                                                                                                                        ",
"                                                                                                                        ",
"                                                                                                                        ",
"                                                                                                                        ",
"                                                                                                                        ",
"                                                                                                                        ",
"                                            . . . . . . . . . . . .                                                     ",
"                                      . . . . . . . . . . . . . . . . . . . . .                                         ",
"                                  . . . . . . . . . . . . . . . . . . . . . . . . .                                     ",
"                                . . . . . . . $ $ $ . $ $ $ $ . $ $ . $ $ $ . . . . . .                                 ",
"                              . . . . . . $ q u t u u u q u u u u u u u t 3 . . . . . . . .                             ",
"                          . . . . . $ & . 3 J ' Q Q Q Q W Q Q Q ' W Q Q Q Z 3 . & $ . . . .                             ",
"                        . . . . . . q x e Z | +.+.+.+.O.+.+.+.+.+.+.+.+.+.| Z e x e . . . . .                           ",
"                      . . . . . . q J Q ' [ +.;.;.;.;.;.;.;.-.;.;.;.;.;.:.-.[ ' Q W q . . . . .                         ",
"                    . . . . . . q Z O.-.+.+.;.-.-.-.-.-.;.;.+.-.;.+.-.-.-.-.-.+.+.) W q . . . . . .                     ",
"                  . . . . . $ q W O.+.;.:.=.=.=.=.=.=.=.=.=.=.=.=.=.=.=.=.=.=.:.:.=.O.I q . . . . . .                   ",
"                . . . . . . e W | +.;.;.=.=.=.=.=.=.=.=.=.=.=.=.=.=.=.=.=.=.=.=.=.=.-.| W e $ . . . . .                 ",
"                . . . . $ u ' [ -.;.-.-.=.=.=.=.=.=.=.=.=.=.=.=.=.=.=.=.=.=.=.=.=.=.-.+.O.W u $ . . . . .               ",
"              . . . . $ e ' +.;.-.;.;.+.=.=.=.=.=.=.=.=.=.=.=.=.=.=.=.=.=.=.=.=.=.=.=.:.-.O.W e $ . . . . .             ",
"            . . . $ * k ' O.-.;.+.;.=.=.=.=.=.=.=.=.=.=.=.=.=.=.=.=.=.=.=.=.=.=.=.=.=.=.:.=.O.' k > $ . . .             ",
"          . . . . * x Q +.;.+.;.-.;.*.:.=.=.=.=.=.=.=.=.=.=.=.=.=.=.=.=.=.=.=.=.=.=.=.=.=.=.=.O.Q k & . . .             ",
"          . . . . * u ) +.:.;.+.-.;.-.:.=.=.=.=.=.=.=.=.=.=.=.=.=.=.=.=.=.=.=.=.=.=.=.=.=.=.:.*.' u & . . . .           ",
"          . . . . > x Q +.;.;.-.+.;.-.+.=.=.=.=.=.=.=.=.=.=.=.=.=.=.=.=.=.=.=.=.=.=.=.=.=.=.:.+.Q x > . . . . .         ",
"          . . $ 3 Z ) #.;.-.;.-.=.=.=.=.=.=.=.=.=.=.=.=.=.=.=.=.=.=.=.=.=.=.=.=.=.=.=.=.=.=.:.+.+.` Z 3 $ . . .         ",
"        . . . * x ) +.;.;.+.;.+.=.=.=.=.=.=.=.=.=.=.=.=.=.=.=.=.=.=.=.=.=.=.=.=.=.=.=.=.=.=.=.-.;.+.Q x * . . . .       ",
"        . . . > x Q #.;.;.+.;.-.=.=.=.=.=.=.=.=.=.=.=.=.=.=.=.=.=.=.=.=.=.=.=.=.=.=.=.=.=.=.;.-.;.#.[ x > . . .         ",
"        . . . * x ] #.;.-.-.;.-.=.=.=.=.=.=.=.=.=.=.=.=.=.=.=.=.=.=.=.=.=.=.=.=.=.=.=.=.=.=.;.+.;.#.' x & . . .         ",
"        . . . * u Q #.;.=.=.=.=.=.=.=.=.=.=.=.=.=.=.=.=.=.=.=.=.=.=.=.=.=.=.=.=.=.=.=.=.-.+.;.-.;.#.Q t > . . . .       ",
"        . . . > x ' #.;.=.=.=.=.=.=.=.=.=.=.=.=.=.=.=.=.=.=.=.=.=.=.=.=.=.=.=.=.=.=.=.=.-.;.;.-.;.#.) m ; . . . .       ",
"        . . . & x ' +.:.=.=.=.=.=.=.=.=.=.=.=.=.=.=.=.=.=.=.=.=.=.=.=.=.=.=.=.=.=.=.=.=.+.;.#.;.;.#.Q x & . . .         ",
"        . . . > u ' *.:.=.=.=.=.=.=.=.=.=.=.=.=.=.=.=.=.=.=.=.=.=.=.=.=.=.=.=.=.=.=.=.=.-.;.;.;.;.+.Q k > . . .         ",
"        . . . ; k Q +.:.-.-.+.;.=.=.=.=.=.=.=.=.=.=.=.=.=.=.=.=.=.=.=.=.=.=.=.=.=.=.=.=.=.=.=.=.-.+.Q x ; . . .         ",
"        . . . > x Q | #.-.-.-.;.=.=.=.=.=.=.=.=.=.=.=.=.=.=.=.=.=.=.=.=.=.=.=.=.=.=.=.=.=.=.=.=.#.| Q x ; . . .         ",
"        . . . & x J Z Q +.;.-.+.=.=.=.=.=.=.=.=.=.=.=.=.=.=.=.=.=.=.=.=.=.=.=.=.=.=.=.=.:.*.:.+.Q J J B ; . . .         ",
"        . . . > Z W Z W +.;.;.;.=.=.=.=.=.=.=.=.=.=.=.=.=.=.=.=.=.=.=.=.=.=.=.=.=.=.=.=.*.:.:.+.W Z J Z > . . .         ",
"        . . . ; Z J Z Q +.;.;.;.=.=.=.=.+.-.;.+.=.=.=.=.=.=.=.=.=.=.=.=.=.=.=.=.-.-.+.-.*.=.:.+.Q Z W k ; . . .         ",
"        . . . $ 3 t Z W [ +.-.;.=.=.=.=.;.-.;.-.=.=.=.=.=.=.=.=.=.=.=.=.=.=.=.=.+.;.;.-.:.*.O.[ J Z z 3 $ . . .         ",
"          . . . . & x W Z Q +.-.=.=.*.:.;.-.;.-.=.=.=.=.=.=.=.=.=.=.=.=.=.=.=.=.:.:.-.-.-.O.W Z L x ; . . . .           ",
"            . . . ; x W Z J Q O.*.:.=.:.+.-.;.+.=.=.=.=.=.=.=.=.=.=.=.=.=.=.=.=.=.*.;.+.| ' W Z W Z & . . . .           ",
"            . . . & k J J Z Z W o.;.;.;.-.-.-.-.=.=.=.=.=.=.=.=.-.;.-.-.-.-.-.-.=.=.#.+.' x L L Z x ; . . . .           ",
"            . . . $ & t Z W Z J Q ` #.;.;.-.-.;.=.=.=.=.=.=.=.=.-.;.+.-.+.-.-.;.:.*.[ ' Z L W Z q ; $ . . .             ",
"              . . . . & z Z J Z x W o.;.+.+.;.;.=.=.=.=.=.=.=.=.+.;.;.-.;.-.#.#.*.O.W Z Z J Z u & . . . .               ",
"                . . . . & 8 Z W Z W Q Q Q ` +.:.;.;.;.;.;.;.;.;.;.;.;.:.;.+.o.Q ' W Z Z W Z u & . . . .                 ",
"                  . . . . $ u J Z J Z Z x J o.=.#.#.#.#.#.#.#.#.+.+.+.#.#.o.J x Z Z Z J Z u $ . . . .                   ",
"                  . . . . . . 8 B W J Z W J Q Q Q Q Q Q Q Q Q Q ' Q Q Q Q W J Z Z J W Z 8 $ . . . .                     ",
"                      . . . . $ t Z Z L Z J B x Z Z Z Z Z Z Z Z Z Z L Z Z Z Z Z W Z Z 8 $ . . . .                       ",
"                      . . . . . . 3 B W J W W Z Z W Z J Z W Z J Z L Z L L Z W W W m 3 . . . . . .                       ",
"                          . . . . $ t k u k Z J W Z J W Z J Z J W Z J W Z Z m t z 8 $ . . . . .                         ",
"                            . . . . . $ . 3 Z W J J W Z Z W W W L W J W W Z > . $ $ . . . . .                           ",
"                              . . . . . . $ 8 t t t t t t t t t t t t u u 8 $ . . . . . .                               ",
"                                . . . . . . . . $ . . . . . . . . . . . . . . . . . . .                                 ",
"                                      . . . . . . . . . . . . . . . . . . . . . . . .                                   ",
"                                              . . . . . . . . . . . . . . . . . .                                       ",
"                                              . . .   . . . .   . . . . .                                               ",
"                                                                                                                        ",
"                                                                                                                        ",
"                                                                                                                        ",
"                                                                                                                        ",
"                                                                                                                        "
};
