/* XPM */
static char *_9ac7a99d19e4b56919dbc83507e8729yzJGj9cdpxyq8kH3[] = {
/* columns rows colors chars-per-pixel */
"60 60 87 1 ",
"  c #433552",
". c #473953",
"X c #4B3E55",
"o c #4E4156",
"O c #4F4258",
"+ c #514457",
"@ c #564957",
"# c #594B57",
"$ c #534559",
"% c #56495A",
"& c #5A4D5B",
"* c #5E515D",
"= c #61555D",
"- c #66595E",
"; c #695C5F",
": c #5F5260",
"> c #625561",
", c #665962",
"< c #6A5D63",
"1 c #6C5F68",
"2 c #6E6165",
"3 c #6E6169",
"4 c #726566",
"5 c #756967",
"6 c #73656C",
"7 c #74676C",
"8 c #746868",
"9 c #756968",
"0 c #756969",
"q c #776A68",
"w c #75686C",
"e c #776A6E",
"r c #786B6A",
"t c #796C6A",
"y c #796C6B",
"u c #7A6D6A",
"i c #7A6D6B",
"p c #7A6E6B",
"a c #786A6E",
"s c #7C6F6E",
"d c #7C706B",
"f c #7D706D",
"g c #7D716D",
"h c #7F736E",
"j c #7B6D70",
"k c #7B6D71",
"l c #7F7270",
"z c #7F7173",
"x c #80736E",
"c c #81746F",
"v c #82756F",
"b c #827570",
"n c #837670",
"m c #837573",
"M c #847771",
"N c #807274",
"B c #837576",
"V c #857871",
"C c #857872",
"Z c #877A73",
"A c #877974",
"S c #8A7C76",
"D c #8B7D76",
"F c #8A7C77",
"G c #857778",
"H c #877978",
"J c #887979",
"K c #8B7D7A",
"L c #8A7C7B",
"P c #8D7F79",
"I c #8D7F7D",
"U c #8E7F7C",
"Y c #8E807B",
"T c #8F807C",
"R c #91827C",
"E c #91827D",
"W c #92847D",
"Q c #93847D",
"! c #928380",
"~ c #938480",
"^ c #938481",
"/ c #968682",
"( c #978882",
") c #978883",
"_ c #978884",
"` c #988983",
"' c #998A85",
/* pixels */
"%%$$$$OO$oOO$o$$%%%%$$$$+$+O$$$$%OOOooOO$OO$$$$$%%%$%%$%$%%$",
"%%%$$$$$$%$$$$$%%%%$%$$$$$$$$$$%%$$OOO$O$$O$$$%%%%%%%%%%%%%%",
"$%%&&*&:*&*&&*&%$%%%%&&&&:&:&&%%%&::>::*&***&&&#%%%$%%%$%%%%",
"$%%*>,<,,,<<<,>*%%$%#*=;<<<<,>&%&,3ee73<,2<<-=*#%$$$$%$%$%%%",
"$$&>2488548p88<=&$$@&=;48ptp8<&$&3zLYGfpppp84<=#%%$O$$$%$%%$",
"$$&<8fnffdcfnf4,%$$&=;4psxxcs4*$:6H/QJGffffs52-*&%$$$$%%%%%%",
"O$*2fAFFFCCFCf8,&$&*;28dcCMCf8>&:3BUYANtsffp52=***>*&&%%%%%%",
"OO:6nYQQRYUFCc8,&$:,45pdccMMx8,*:,6sk73224582=**=<<<,*&%%%$$",
"X$:6G!__/QEYSs4>&%=28pdffcccf84=&==>>*&*=-;;,&&&,4s84=&##%%%",
"oO>7G!__//UFnp2>%&,8nnnxfccxf82-=##%$%%%#*==&%$&28fft;=#&#$%",
"O$&3kBIILHBzp4,&$&2kAFLCCMMnp5;=&#&&**>***#&$$O&2tnnp52=*%%$",
"$$&>1666e623,,*$$:4BY/QQERFCf8-#@&,22212,=&$+X$:1snCxtt4,&$$",
"$%%%&&&:*&&&&&$oO:eA^___ERRMf2=$$=4pfdpp4,&+.X$&<8xGvcf8,&$+",
"%%%%&%%%%%%%%%$$O>6B!///EUSNp4,&&<7NvCVct<*$$$$:,8sxccf8<*$+",
"$%%>,11,>**=>>&%%*3kBGGGGjj744247afccCcct8<,&&%%=<478p82,&$$",
"O$&3ezkk432244<=&*><36663<,>,6jGSZcxxdcfsse4<>%$&*>>,,,=&&%$",
"XO>7G!!Lxtpdpp5;=#**&&&&&%O+*4G!/UCsssfffccp4,&$$$#$%&%&%%$%",
"X+>7L__!DMMxCxt82=#$ooO%%$oo&3zTTUAnncccnncs4,#$$&$&%$$$$%%%",
"X$>kU_''QUDSCcfp42=%Xo&*>>&+%,6zAILLLFUUFcf4<&$o#>,,*&@@%%%%",
"X$>7U_''`EUDCcfcd5<&O$>262-*&::<4zL!/`QQFz5;&$X$*1q4<=##%%%$",
"X+>7J/__`QUIcfxccp2*%&<pxp4-*#$$>6H/__)^Lp1*@+$&<8Na8;*#%%%$",
"X%:1kJU!UUSNpppptt2=*>8fxd54-&oo%1zL!!!LB4=##*><8fcct8;=&&%$",
"$$&,8ekkksa65424422222pfxxd52-#@#,6kkzkk3>#%=4jGMccdp84<>&$$",
"$%%:>,,,,,,,<;;=*>,28pfsxxcd84-*&*>,,,>>&%o&1NUUUCfdpp81>&$$",
"%%%%$%$$$$#*==&+$&,8ccccxxxxxt4=*&@$$$$%$oo*6B!/UCnsxcfp<&$O",
"%%$$$X+Xo++###@o+&2zDFCcdxxxxp54-&$XX$&&*&*,4zHIJSCSFFZN1:$O",
"%%%%%#$$@@@##%+oX:6ZERSxdddxxtpp4-%XX&-22223366eGLYEQ/UG8>OX",
"$$%&##&>**&&#%$oO>6U/QUndddxxxxxp<&X$=4dfhfp3>*,7JQ''//M6>$O",
"$%#&==----=&&$$XO:eAE!UGxdxnxxxxa2>&>2pcCMnf4*%*3B!/_/YG6:+X",
"$%&=;22422;=&%$$$&1kNLINFFUDSNst4666ephcMnnh5<=>3kBHLLBk1:$O",
"$$&=48t5t54<>*%%$$&,3kBDE/`EUn6,<4kHJBcfdcffsp646336673<,&$$",
"+$&;4pxxxd54,*&%%$$$&<kU/''/EB1&:2IQEYCfddffcffs4,:&%*&&%%%$",
"X$#1pxZSxnt4-*##&++XX*7GUE//Ls,%%3BEEUBNcccccccp2*o..o+O$$%%",
"+$>4GUUDGnt2&#@###@X+*2tNGBzz3>%&,ezGGLDUYYLGcp4,%o..XXO$$%%",
"X+>7GE!!Sv8<&o$@#*####=,133<,=*#&&>,6BJ!Q`/EFf4;=++XX$$$$%%%",
"X$>7L!_UZp8,&$@#===--***%%%$&&*==#$%,kI/''`QG5;#&$$@$$$#%%%$",
"X%:6NLUGz742,,,,;;;;;=*+XXo%**;;,=@&=6GU!/TJz1=+#***&&%%%%%%",
"$$&17kk64<367j66444852=%O$*=;22442<<<4eskjjj4=#$*,2<-*&&%$%%",
"$$%&>,,>**2kAUDNptpdd5,&$&,36ppdtptt83<,,,<>&$+$=4p52=##%%%$",
"%%%%%$$XX%1zEQQFcdccc8<&%:3kcvfcxcnNs2*$X$+%%+$=2ppp52=*&%%%",
"%%%$ooX  $1z!'_!LCCCcp<&$>7MSDZMvCZva<&X  .$%:11tscfp4;-:&$$",
"$%%OOoo. %1B!''_EYUFMp<&&,jJEUSNcvCMs<&X   $>6zGGcxfp54<:&$$",
"%%%$%$$oX$1GE'''/QEFc8<&$1GUQQSnccMcp1&$  .%3zU!YCddddp4,*$$",
"%%%%%%@$+&<jL^)_EUUBf5-%$,jU~EGxddss82=#$$$:6B!^USczcCxt<*$O",
"%%$%###+@&,6NGGHBBza6<:%#>6zGNs8558441,===,,6kBHAHFFFYFz3*$O",
"$%%%##*#&&=,2336661<,>%$$%:16424<;-&=,4576454116NLE^))EG7:OO",
"$%%&*===****&&&&&&&&%%%$$$%%&*=,==$#&1pcxxxt1>&>7H/_'`!J7=Oo",
"$$&*=-;;;->&$OOOOOO$$%%&:&&%#&&&=&&&,4pvcCBs8>%:3BT^/QUB6:Oo",
"O%&*,24444;=#+++oooo+#=-,<;-==&#&,37kksNccMxt2-,4ajNGNG61#$O",
"O$*>28tdp55;=#@$$+$$@*-278t57,&#&4jLUGvpdxcxspt743<111<,>&$$",
"O%:,5dfvcc54;*#&@%%#*;4pxxxxp4*$:6J!RUMxdxxfxcxt4,#$%%%%%%%%",
"O$*1fCFZVcp4;=#%%%*<2tdxCSDMx8=#&6BUEUFMcNxxxxxt1&oXXX$$$$%$",
"oO:6GYYYZcp4;*#+$&<7xSUUUDDZx8;=*,6kGJJYDDcxpp54,&XOO%%%%%%%",
"X$>8LQQRZcp4;=#+$:4BE//Q/ERZxt;=*&:>4NY/RUCcp42=*#%$#*=*&&$%",
"o$>eL^/YCd52-=%O$:6H/'`/EUDvp8<<*$O$>kLQQUMt82,*&%%%#===&%$%",
"oO*3zALcd52;=*%$$:3zLUTJJBxt8<,=#$XX#6NIJmt5;-*#%@%#**=#&%%$",
"$$&,36643<,=&&%$$&,6eske6611,,=&#$oo&,7774<,>:#%%$%%&&&&&%%%",
"%$%&:>>::&&&&%%%$%&::>>>>>:&&&&%&%%%%&:>>>:&&&%%%%%%%%%%%%%%",
"%%%$$OO$$$$$%$%%%%$OO$O$O$$$$$$%%%%%$$$o$$$$$$%%%%%%%%%$$%$%",
"%%$$OXOXOO$$$$%$$$$OOXXXXoX$$$$$$%%$$$ooXOX$$$$$%%%$$%$$%%%%"
};
