/* XPM */
static char *fa531665cdde4784bae4b34c3df7057ePSSoojVWRUIphbVk[] = {
/* columns rows colors chars-per-pixel */
"60 60 167 2 ",
"   c #020202",
".  c #090706",
"X  c #0A0807",
"o  c #02040B",
"O  c #09070A",
"+  c #050B0A",
"@  c #0C0A0B",
"#  c #110E0E",
"$  c #13100F",
"%  c #020611",
"&  c #040915",
"*  c #0B0D15",
"=  c #050C1D",
"-  c #0A0E19",
";  c #120E13",
":  c #130E19",
">  c #07101D",
",  c #08101F",
"<  c #151213",
"1  c #191516",
"2  c #1C1817",
"3  c #111319",
"4  c #1A151B",
"5  c #1E191A",
"6  c #221D1D",
"7  c #25201E",
"8  c #060F22",
"9  c #080F20",
"0  c #070F2C",
"q  c #061025",
"w  c #091223",
"e  c #07122B",
"r  c #08132C",
"t  c #1A1421",
"y  c #1E1821",
"u  c #071233",
"i  c #081634",
"p  c #091738",
"a  c #09183A",
"s  c #221C23",
"d  c #261F2B",
"f  c #281F31",
"g  c #262122",
"h  c #2A2525",
"j  c #2E2827",
"k  c #272028",
"l  c #2B252A",
"z  c #2E2929",
"x  c #322C2C",
"c  c #37312F",
"v  c #2E2631",
"b  c #332B34",
"n  c #302738",
"m  c #362D3A",
"M  c #382F3B",
"N  c #3A3334",
"B  c #3F3836",
"V  c #3B323C",
"C  c #413A37",
"Z  c #40373C",
"A  c #443C3C",
"S  c #483F3F",
"D  c #49413F",
"F  c #081543",
"G  c #091A45",
"H  c #091C4C",
"J  c #0B1E53",
"K  c #0B1F5C",
"L  c #0B2057",
"P  c #0B215B",
"I  c #392F40",
"U  c #3E3342",
"Y  c #0B2362",
"T  c #0C2A6B",
"R  c #0E2771",
"E  c #0F2977",
"W  c #0F2C7C",
"Q  c #102B7D",
"!  c #413645",
"~  c #443A43",
"^  c #483F46",
"/  c #423749",
"(  c #463B4A",
")  c #493D4C",
"_  c #473953",
"`  c #4B3E52",
"'  c #4C4344",
"]  c #4D424C",
"[  c #504646",
"{  c #514946",
"}  c #51464D",
"|  c #544B4B",
" . c #594F4D",
".. c #5B514E",
"X. c #4E4155",
"o. c #4F4258",
"O. c #514555",
"+. c #554954",
"@. c #594D54",
"#. c #524559",
"$. c #55485A",
"%. c #5A4D5B",
"&. c #5D5353",
"*. c #5E515C",
"=. c #5E515E",
"-. c #615754",
";. c #645A55",
":. c #61555C",
">. c #655A5B",
",. c #695E5C",
"<. c #6C615D",
"1. c #5F5260",
"2. c #615460",
"3. c #665961",
"4. c #685B61",
"5. c #695C62",
"6. c #6A5D63",
"7. c #6E6163",
"8. c #6F6269",
"9. c #726564",
"0. c #736666",
"q. c #746767",
"w. c #756965",
"e. c #72656A",
"r. c #756868",
"t. c #76696B",
"y. c #7A6D6B",
"u. c #7D706D",
"i. c #7E716D",
"p. c #7C6E71",
"a. c #81746E",
"s. c #837573",
"d. c #867974",
"f. c #897B75",
"g. c #877978",
"h. c #8B7C7A",
"j. c #8D7F79",
"k. c #8F807C",
"l. c #92837D",
"z. c #112E85",
"x. c #0F3081",
"c. c #12338C",
"v. c #11388B",
"b. c #123491",
"n. c #123B91",
"m. c #143F99",
"M. c #153EA3",
"N. c #14409C",
"B. c #1542A7",
"V. c #1646AB",
"C. c #184AAF",
"Z. c #1748B4",
"A. c #184BB4",
"S. c #1A4FBB",
"D. c #1C55C3",
"F. c #1C58C6",
"G. c #1C56CA",
"H. c #1C58CF",
"J. c #1E5DD1",
"K. c #1F5EDA",
"L. c #2166DC",
"P. c #226AE1",
"I. c #236CE9",
"U. c #2471ED",
"Y. c #2575F2",
"T. c #948580",
"R. c #998A84",
/* pixels */
"$.$.$.#.#.o.#.o.o.#.o.o.o.#.#.#.$.$.$.$.#.#.#.#.o.o.o.#.#.#.#.$.$.$.` ` ` #.#.#.o.#.X.#.#.#.#.$.$.$.#.#.#.#.%.#.$.$.$.$.",
"$.$.$.#.#.#.#.#.#.#.#.o.#.#.#.$.X.) ] X.! U U U M m m m U U U U b v m M I / ) ) _ ) ( _ O.X.X.O.$.$.$.$.%.#.%.#.$.$.$.$.",
"#.$.$.$.%.%.%.%.=.%.%.=.%.%.$.+.X.) / / V m V M M m b m V U m m l v b V U ~ ) ] ] ] ~ ] +.$.O.$.$.$.$.#.%.#.#.#.#.$.$.#.",
"#.$.%.=.3.4.6.6.>.,.6.6.:.@.+.] ( U V b b b l h x z h h b z s y d l z h z b S ~ Z ~ ' ] [ +.%.%.$.$.O.#.#.#.#.%.%.$.$.#.",
"#.#.%.2.6.e.r.r.w.w.w.w.,.&.+.] ! m k y s s 4 < 2 6 1 < 4 1 @ @ < 4 1 3 $ 2 z x x B D ' ' | @.+.+.O.` O.#.#.#.$.#.#.%.%.",
"o.#.=.6.t.u.a.u.u.u.w.<.,.<.&.} V l 4 O # # .   .                         . O 1 7 c C D S ' ' ] O.O.X.#.#.#.$.$.%.#.#.#.",
"o.O.=.8.u.d.f.d.a.d.y.<.;...| V d : O         o o o o o o o o o o o o o o       @ 5 j c N Z S ] +.+.$.%.%.%.$.$.$.$.$.$.",
"X.#.=.e.s.f.k.f.k.k.a.<...' N 5 @           & = = = = = = = = = = = = = = &         . 1 h b ! ' | :.3.6.3.%.%.%.$.$.$.#.",
"` o.2.r.g.T.T.h.g.g.w.;.{ N 6 .       o o o q e e q e e e e q e e e e e e 8 %   o .     ; d m ~ +.:.<.9.,.>.$.@.$.$.$.$.",
"o.o.1.e.g.T.T.g.u.y.<.| D x <       % = & = e p i i i i i i i i i i i i i e = = = &       # d V | &.-.,.,.>.:.%.%.$.$.$.",
"o.#.1.6.p.s.s.y.7.;.' B z 2       o q e e e i a a p p p p a a p a a p p a i e e e 8 -       ; l A { ..;.,.>.>.:.:.$.$.#.",
"#.#.$.3.4.6.3.:.&.] B h ;       o = r i i i p p p p p p p p p p p p p p p p i i i r = o     O 3 z A ..-.;.>.>.>.:.$.#.#.",
"#.$.$.$.$.o.) ~ U M d ;       o = e i a p p p p p p p p p p p p p p p p p p p p a i e = o       # z '  ...<.<.,.>.%.#.` ",
"$.$.$.$.O.( U V v k 3       o = e i p p p p p p p p p p p p p p p p p p p p p p p p i e = o       1 N ' ..<.r.9.3.2.#.O.",
"#.#.$.1.:.+.' V h 4 .     o = e i a p p p p p p p p p p p p p p p p p p p p p p p p a i e = o     . 2 x D -.9.,.2.$.$.#.",
"#.#.1.6.e.7.| B 6 O     o = e i p p p p i p p p p p p p p p p p p p p p p p p p p p p p i e = o     . < x ] =.+.O.O.O.$.",
"X.X.=.8.y.w.-.N <     o = e i a p p p p p p p p p p p p p p p p p p p p p p p p p p p p p i r = o     O s I ] ( ( ` #.$.",
"` ` +.:.<.w...x @   o = e i i p p p p p p p p p p p p p p p p i p p i a p p p p p p p p p p i w = o   . 4 b ! / ) O.$.$.",
"` _ +.&.,.<.[ 6 .   % q i i a p p p p p p p p p p p p p p p p p p p p p p i a p p p p p a a i i 8 o     3 l V U ( #.#.$.",
"` ( +.,.<.-.c .   X - q r p p p p p p i p p p p p p p p p p p p p a i p p p p p p p p p i p a r 8 o     . d V V ~ ( ) $.",
"` _ +.>.>.{ h     3 w r i p p p p p p p p p p p p p p p p p p p a p p p p p p p p p p p p p p i 8 = o     7 N N ! ~ ( $.",
"#.o.+.@.[ A 6   o q r i i p p p p p p p p p p p p p p p p p p p i p p p p a i p p p p p p p p p i e = o . 5 x M ! ) ) #.",
"O.#.$.] Z x 1   % q r a a p i a p p i i i i p p p p p p p p p p p p a i p i i i i p p p p p p p p i 8 & . < s M ~ ) ) #.",
"#.$.O.( V h 3   & w r p a i a a a p r q > w i a p p p i p p p p p p p a a i w > , r p p p p p p i r > %   @ g N ' ] ) #.",
"$.$.` U v s *   % 8 r p p p a i r r G L K J a w i p p p p p p p p p p i r a J P J G r r p p p p p e 8 o   . 6 N ' ) ) #.",
"#.) ! m l s ;   % 8 i i p p a a     Y z.z.Q F   > a a p p p p p p p a - . F W c.z.P   . a a p p i i 8 %   . h N ' ] ` X.",
"O.) U m v 4 @   % 8 r p a p r i G T N.S.S.A.v.L a r i a p p p p p i r a K v.Z.S.S.m.T G i r p p i i = o   X 7 N ) +.` #.",
"#.) ( ~ b ; . . & 8 i p a p   + z.S.J.P.P.L.G.B.Y   q a p p p p a -   T M.H.L.P.L.H.A.W .   p p p e 8 %     2 Z } +.` X.",
"#.) ) ) b <   . - 8 i p p p r L V.L.I.Y.Y.U.I.G.v.r i i p p p p p u u v.H.I.U.Y.Y.I.L.B.H e i p a r 8 o     6 N [ O.` X.",
"O.` ^ A x 4 @   & 8 r p i p K b.D.I.U.U.U.U.U.L.C.E L r i p p i r J W A.L.U.U.U.U.Y.I.D.c.K i i p e 8 %   # h N ! ~ ! X.",
"#.X.) Z x 7 < . & 8 r i w i R M.L.Y.Y.I.U.U.Y.I.S.b.P , i p p r w Y b.F.U.Y.U.U.U.Y.U.L.M.R i r i e 8 %   * k N Z ~ / O.",
"#.#.O.S x j 2 @ - 8 q e - p R m.J.Y.Y.U.U.U.Y.U.D.c.P > i p p i , Y b.D.U.Y.U.U.U.U.U.J.M.T r = e q = &   O 4 b ) X.O.$.",
"o.#.O.^ Z c 7 @ & w 8 = > a Y v.F.I.U.U.Y.U.I.L.A.E J e i a p i r J W A.P.I.Y.I.Y.I.I.D.v.K i 8 = q 8 &   o : n ( O.$.$.",
"` ) ] @.{ C 7   & w q 8 e a e J V.L.I.Y.Y.U.I.G.v.0 i i i p p p i i u n.H.I.Y.Y.Y.I.K.B.H e p r 8 8 8 &   O 5 d M ` $.$.",
"` ( O.-.&.D 6   o = , 8 r i   + z.A.H.P.I.L.G.B.P   q a p p p p a -   Y B.G.L.I.I.J.Z.W .   i e 8 8 = o   ; d v M ) O.$.",
"X.X.@.=.| A 2   o o & q q e 8 i H T N.S.S.C.v.J a r i a p p p p p i r G P v.V.D.A.m.T H r q e e 8 = o     ; v V ( ) ` $.",
"#.#.%.:.@.D 7       & 8 q 8 i i     P z.c.Q a   q a a p p p a p p a a -   F x.z.z.P     p r q q 8 &       4 b ! ` ` ` $.",
"o.#.%.:.&.' l @     = 8 q 8 q q q i H J K J a e i a p p i p i p i p p i w G J P L H r q q q q q 8 &     @ s M ! ) O.#.$.",
"#.#.$.%.O.~ b 4 O . & 8 8 8 8 8 e i r w = w i a p p p p a p p p a p p p p i w - q r i e 8 8 q > = o   . 6 z Z ! ) $.$.$.",
"#.O.X.) U m l d *     o = q q 8 q e i i i p i a p p p p p p p p p p p p p p i p p r e q 8 q 8 = o     < z c S ) +.$.O.#.",
"$.O.` ) / I n f :       o 8 8 8 8 8 r i i i i a p p p p p p p a p p p p p p i i i r 8 q 8 q = o     # j A S ' @.%.#.` #.",
"#.#.#.O._ / M n 4 O       o = 8 q 8 q e e e u a p a p p a a p i a a a p p i e q e q 8 8 q w >     # j A  .|  .-.2.1.$.#.",
"$.$.$.O.` ) ! n d 4 ; .     % 8 8 8 8 8 = 8 u i i i u i i i u i i i i i i u 8 8 8 8 q 8 = - @     6 A ..<.;.-.,.3.%.#.#.",
"$.$.$.O.` ) ! m n n z 6 @     o = q q 8 8 8 q e e e e e 8 e e e 8 e 8 e e q 8 8 8 q q = o .   @ 1 c D ;.w.w.9.<.3.1.#.#.",
"$.$.#.O.O.) ^ ! U Z B b 6 O     % 8 8 q q 8 q = = 8 8 8 8 8 8 8 8 8 8 8 8 8 8 8 q 8 8 &     @ 6 x ^ -.w.s.g.s.r.6.1.` ` ",
"#.$.$.$.$.$.+.} ) ~ ! V h 4 .     % = q q q q 8 8 8 8 8 8 8 8 8 8 8 8 8 8 8 e e q = %       < x [ -.q.d.T.T.j.g.e.2.#.#.",
"$.$.$.%.%.:.:.%.| } ~ Z b l ;       & 8 = 8 8 q q 8 8 8 8 8 8 8 8 8 8 8 8 8 8 8 8 &     . ; 4 V &.8.s.j.R.R.T.g.t.2.` ` ",
"#.$.$.=.>.>.>.4.>.&.} ! M n y O O   o o o o 8 q q q q 0 0 8 e 8 8 e 8 e 8 = % o o       @ 5 l V @.e.y.g.j.j.g.g.e.1.#.$.",
"#.#.%.2.4.7.9.9.7.<.&.^ ^ ! f t ; @ .       & 9 = = = 8 = 8 = = 8 = = , 8 &         @ 1 7 N A } >.6.e.r.p.s.p.t.6.1.` ` ",
"#.#.%.3.6.r.y.t.y.y.,.@.) ~ Z b s ; ; ;     % & o O o o % o % o o o & & - O       1 j N D {  .;.6.>.:.3.6.6.6.3.1.%.%.$.",
"#.#.%.6.q.u.a.a.a.a.q.>.&.) ) S v 6 s s < X @ X .       . .       . O < 2 #   . 6 j D ..-.,.<.<.6.:.O.#.#.%.%.$.%.#.$.$.",
"` #.1.6.y.d.d.d.d.a.y.7.>.@.) ^ m f l l z g 2 $ 6 6 # < 2 4 @ O ; 4 4 7 x h 2 7 N D ..,.w.w.<.<.>.+.` _ _ ` $.` #.#.$.$.",
"o.$.1.e.d.j.l.j.d.a.a.9.,.@.O.) ! ! ~ ^ [ ' N x C C x h x z s s l z h x A A A { -.;.,.<.y.w.<.>.:.$.` ` #.#.$.$.#.$.$.$.",
"` ` 2.t.h.l.l.l.d.a.w.7.>.@.O.` ) +.>.6.,.,.-. . .| A C C C A Z V V b m ' &.<.u.a.r.9.<.;.>.>.:.=.%.$.+.%.1.:.=.%.%.#.#.",
"o.o.1.t.g.T.T.j.s.a.q.7.:.@.#.` #.=.e.s.d.a.y.9.9.,.-. .| | @.| ~ V m U ] 6.u.l.l.d.r.,.>.-.:.@.%.$.$.$.=.=.:.=.=.$.$.#.",
"` $.2.6.s.g.h.d.a.q.7.3.:.=.%.` O.=.8.y.d.d.a.w.y.t.9.7.;.;.:.$.~ U U / $.>.8.u.s.s.9.6.3.>.:.$.+.$.$.$.%.=.:.=.%.$.$.$.",
"$.o.1.2.8.t.t.e.8.3.2.2.1.$.$.` #.%.3.8.t.p.e.8.e.e.e.6.2.2.2.%.] ( ) X.%.2.3.8.r.8.3.3.2.1.$.%.$.$.$.$.%.%.%.%.$.$.$.#.",
"$.$.%.%.1.2.1.1.1.1.%.%.%.%.$.$.#.$.%.1.2.2.2.1.1.1.1.1.1.1.%.#.#.O.#.#.$.%.%.2.:.2.%.$.%.1.$.$.$.$.$.$.$.%.$.%.$.$.$.$.",
"#.$.#.#.#.o.o.o.#.$.$.#.#.#.$.$.$.#.#.#.$.o.` #.#.#.` $.#.#.#.$.$.$.$.#.#.#.#.o.#.#.$.#.#.#.#.#.$.$.$.$.$.#.#.$.$.$.$.$.",
"%.$.#.o.o.` o.o.o.` #.o.#.$.$.$.$.$.#.` #.` ` ` ` ` o.#.#.#.#.#.#.$.$.$.#.#.X.X.` ` #.#.#.#.#.#.$.$.$.#.$.#.#.#.#.#.$.$."
};
