/* XPM */
static char *_8b849f43eec476fd9a2ad18b3c6a56aOuzByxEYkfy9KUN9[] = {
/* columns rows colors chars-per-pixel */
"60 60 181 2 ",
"   c None",
".  c black",
"X  c #000001",
"o  c #000101",
"O  c #000002",
"+  c #000102",
"@  c #000103",
"#  c #010103",
"$  c #040000",
"%  c #050100",
"&  c #050200",
"*  c #050700",
"=  c #060502",
"-  c #000104",
";  c #010205",
":  c #010206",
">  c #010207",
",  c #070B03",
"<  c #070B04",
"1  c #010209",
"2  c #01030A",
"3  c #01040B",
"4  c #01030C",
"5  c #01040C",
"6  c #02050F",
"7  c #070C0C",
"8  c #020510",
"9  c #030716",
"0  c #030717",
"q  c #070E13",
"w  c #030814",
"e  c #030816",
"r  c #030817",
"t  c #030917",
"y  c #040917",
"u  c #070E15",
"i  c #030818",
"p  c #030919",
"a  c #03091A",
"s  c #03091B",
"d  c #030A1A",
"f  c #040918",
"g  c #04091A",
"h  c #040A1A",
"j  c #040A1B",
"k  c #040B1B",
"l  c #060D1A",
"z  c #070F1B",
"x  c #040A1C",
"c  c #040B1C",
"v  c #040B1D",
"b  c #040B1E",
"n  c #050C1E",
"m  c #050D1F",
"M  c #060E1F",
"N  c #050D20",
"B  c #050D21",
"V  c #060E20",
"C  c #060E21",
"Z  c #060F21",
"A  c #060E22",
"S  c #070E22",
"D  c #060F22",
"F  c #060F23",
"G  c #060F24",
"H  c #060F25",
"J  c #070F2F",
"K  c #071121",
"L  c #061024",
"P  c #061025",
"I  c #071025",
"U  c #061026",
"Y  c #071026",
"T  c #071126",
"R  c #061027",
"E  c #071127",
"W  c #081226",
"Q  c #081227",
"!  c #061028",
"~  c #071128",
"^  c #071129",
"/  c #071228",
"(  c #07112A",
")  c #07122A",
"_  c #07122B",
"`  c #07132C",
"'  c #07132D",
"]  c #07132E",
"[  c #07132F",
"{  c #081328",
"}  c #08132A",
"|  c #08132B",
" . c #08132F",
".. c #08142E",
"X. c #08142F",
"o. c #071030",
"O. c #091530",
"+. c #081431",
"@. c #081531",
"#. c #081432",
"$. c #081532",
"%. c #091532",
"&. c #081533",
"*. c #091533",
"=. c #081534",
"-. c #081635",
";. c #091635",
":. c #091636",
">. c #091736",
",. c #091637",
"<. c #091737",
"1. c #07163B",
"2. c #091738",
"3. c #091739",
"4. c #091839",
"5. c #09183A",
"6. c #09183B",
"7. c #09183C",
"8. c #09183D",
"9. c #09193D",
"0. c #0A193D",
"q. c #091A45",
"w. c #091B48",
"e. c #081C48",
"r. c #0A1C48",
"t. c #091C4A",
"y. c #0B1E50",
"u. c #0B1F51",
"i. c #0A1B54",
"p. c #0A1C54",
"a. c #0B1E58",
"s. c #0D2369",
"d. c #0D236A",
"f. c #0D246A",
"g. c #0D256B",
"h. c #0D296A",
"j. c #0D296B",
"k. c #0D2971",
"l. c #0E2875",
"z. c #0E2E74",
"x. c #0E2E75",
"c. c #0F2979",
"v. c #102D84",
"b. c #103183",
"n. c #113588",
"m. c #11358F",
"M. c #143B9E",
"N. c #153E9D",
"B. c #14409F",
"V. c #1644A3",
"C. c #1542A7",
"Z. c #1643A9",
"A. c #1745AD",
"S. c #194EB9",
"D. c #1A4EB9",
"F. c #1B55BF",
"G. c #194FC0",
"H. c #1A4FC0",
"J. c #1C58C6",
"K. c #1E5ED0",
"L. c #1E5FD1",
"P. c #1E5CD7",
"I. c #1F62D7",
"U. c #2064D8",
"Y. c #2166DB",
"T. c #2165E3",
"R. c #2165E4",
"E. c #226CE3",
"W. c #226CE7",
"Q. c #236BE9",
"!. c #236CE9",
"~. c #2471EC",
"^. c #2470ED",
"/. c #2471ED",
"(. c #2472ED",
"). c #2471EE",
"_. c #2472EE",
"`. c #2573EE",
"'. c #2574F0",
"]. c #2575F2",
"[. c #2676F3",
/* pixels */
"                                                                                                                        ",
"                                                                                                                        ",
"                                                                                                                        ",
"                                                                                                                        ",
"                                                                                                                        ",
"                                                      .   . . . . . .                                                   ",
"                                            . . . . . . . . . . . . . . . .                                             ",
"                                    . . . . . . . . . . . . . . . . . . . . . . .                                       ",
"                                  . . . . . . . . . . . . . . . . . . . . . . . . .                                     ",
"                                . . . . . . 5 0 p p 9 y p 9 9 p y 9 y e p 5 . . . . . . .                               ",
"                            . . . . . - . - s W T T T G G W T G Y Y W W T s - . - . . . . .                             ",
"                          . . . . . - f f f W =.&.&.&.&.&.&.&.=.&.&.&.&.&.H f f e 1 . . . .                             ",
"                        . . . . . . f T { { +.3.0.2.2.2.3.6.3.3.6.3.3.6.<.&.T T T p . . . . .                           ",
"                        . . . . - y T #.=.=.=.3.3.2.2.2.3.=.3.3.<.<.=.6.<.<.&.<.#.T e . . . . .                         ",
"                      . . . . . e T #.=.0.3.2.2.3.=.4.<.<.<.=.6.=.6.6.=.6.=.6.6.6.&.T e . . . . .                       ",
"                    . . . . . e T #.<.6.2.2.2.2.2.4.4.=.6.6.=.6.6.<.<.6.<.6.=.6.<.=.#.T y . . . . . .                   ",
"                  . . . . . 9 K #.1.6.<.2.2.2.2.2.2.2.2.2.2.2.2.2.2.2.2.2.2.2.2.2.4.2.&.G 9 . . . . .                   ",
"                  . . . . w T &.<.<.<.<.2.2.2.2.2.2.2.2.2.2.2.2.2.2.2.2.2.2.2.2.2.2.2.2.&.W y . . . . .                 ",
"                . . . 1 f T &.<.6.<.<.6.2.2.4.4.2.2.2.2.2.2.2.2.2.2.2.2.2.2.2.2.2.2.2.4.=.&.Y 0 1 . . .                 ",
"              . . . - e T &.6.=.<.<.6.=.2.2.<.=.2.2.2.2.2.2.2.2.2.2.2.2.2.2.2.2.2.2.2.2.3.3.&.Y p - . .                 ",
"              . . . . f { =.6.6.6.=.=.6.6.=.<.6.2.2.2.2.2.2.2.2.2.2.2.2.2.2.2.2.2.2.2.2.2.4.=.{ y . . . .               ",
"            . . . . . y W &.6.<.<.6.3.3.<.6.<.<.2.2.2.2.2.2.2.2.2.2.2.2.2.2.2.2.2.2.2.2.2.4.=.W y . . . .               ",
"            . . . 3 s _ &.=.6.6.=.} W W X.6.6.6.2.2.2.2.2.2.2.2.2.2.2.2.2.2.2.2.2.2.2.2.2.2.2.&._ p 5 . . .             ",
"            . . . e T #.6.=.6.=.6.6.0.0.6.<.=.<.2.2.2.2.2.2.2.2.2.2.2.2.2.2.2.2.2.2.2.2.2.2.2.4.#.T p . . .             ",
"          . . . . p _ &.6.0.X.% [ f.c.l.p.% , 1.4.2.2.2.2.2.2.2.2.2.2.2.2.2.2.2.2.2.2.2.2.2.2.4.<.G e . . .             ",
"          . . . . e G &.3.=.=. .f.N.A.Z.n.e._ <.<.2.2.2.2.2.2.2.2.2.2.2.2.2.2.2.2.2.2.2.2.2.2.2.&.G p . . . .           ",
"          . . . . e T =.=.% r.m.S.I.Y.I.J.C.k., 7 2.2.2.2.2.2.2.2.2.2.2.2.2.2.2.2.2.2.2.2.2.4.4.&.G y . . . .           ",
"          . . . . y G &.3.= z.H.T.~.[.[.Q.P.N.1.S 2.2.2.2.2.2.2.2.2.2.2.2.2.2.2.2.2.2.2.2.2.=.6.&.T 9 . . . .           ",
"            . . . p G K r.d.V.I.!.(.`.(.`.!.F.b.a.*.*.2.2.2.2.2.2.2.2.2.2.2.2.2.2.2.2.2.6.=.6.<.&.W p . . . .           ",
"            . . . e T u y.v.S.E.[.(.~.(.`.`.L.N.f.{ X.2.2.2.2.2.2.2.2.2.2.2.2.2.2.2.2.2.6.=.<.6.=.G i . . . .           ",
"            . . . e Y u y.v.S.E.[.(.~.~.`.[.K.N.f.} X.<.2.2.2.2.2.2.2.2.2.2.2.2.2.2.2.2.6.3.3.6.=.G i . . . .           ",
"            . . . y G z q.d.V.I.(.(.`.(.`.!.H.b.a.X.*.2.2.2.2.2.2.2.2.2.2.2.2.2.2.2.2.2.=.3.3.=.+.G p . . . .           ",
"            . . . p G N _ % z.H.R.).[.[.W.P.V.1.N =.3.3.2.2.2.2.2.2.2.2.2.2.2.2.2.2.2.2.2.2.=.{ T K p . . .             ",
"            . . . f W T l % t.m.S.L.Y.Y.J.C.k.* 7 3.3.3.2.2.2.2.2.2.2.2.2.2.2.2.2.2.2.2.2.4.=.Y N G p . . .             ",
"            . . - s W N T X.3.[ f.N.A.Z.n.r.[ =.<.<.=.6.2.2.2.2.2.2.2.2.2.2.2.2.2.2.2.2.3.3.=.~ T T l . . .             ",
"            . . . 8 s N G #._ % +.d.c.l.i.% , 3.6.6.=.6.2.2.2.2.2.2.2.2.2.2.2.2.2.2.2.4.=.&. .G N f 8 . . .             ",
"            . . . . > s T K _ #.3.6.0.0.4.=.=.6.<.<.6.<.<.6.2.2.2.2.2.2.2.2.2.2.=.3.3.3.=._ N K s > . . . .             ",
"            . . . . . s G N G [  . .{ W *.6.6.<.=.6.=.6.4.=.2.2.2.2.2.2.2.2.2.2.6.3.3.&. .T N T n . . . . .             ",
"              . . . - s T G N N { =.2.4.<.<.=.6.6.6.=.<.4.2.2.2.2.2.2.2.2.2.2.2.3.3.=.{ N N G T s - . . .               ",
"              . . . . 4 p N T K Y { &.4.4.4.6.<.<.<.6.<.<.2.2.2.2.2.2.2.2.2.4.4.=.&. .G K W N e 5 . . .                 ",
"                . . . . - f T K G N { =.=.3.=.6.3.3.=.3.6.=.3.3.6.=.3.3.3.3.3.3.=.} N K G G s - . . .                   ",
"                  . . . . 3 i G W N T [  .{ &.6.6.3.3.3.6.<.6.6.6.6.6.3.3.=.{ {  .T N T N f 3 . . . .                   ",
"                    . . . . - s N G W N n n X.=.=.3.3.:.=.=.=.=.=.=.=.=.=. .N N N N G T n - . . . . .                   ",
"                    . . . . . 1 p G W N N T T _ { { { {  .{  .{ { { _ _ _ T G N K T N f 1 . . . . .                     ",
"                        . . . . 1 n S T G N G N N N S N N N N N S N S N N K G G N Y s 1 . . . .                         ",
"                        . . . . . - y N { Y G G G G N Y G N W G G G T S G G W W W f - . . . .                           ",
"                            . . . . 1 n s N N G G G Y G G G T N G G G G G N n n s 3 . . . .                             ",
"                            . . . . - - - 1 f W G T G T T G K W T T N W W f - - 1 . . . . .                             ",
"                                . . . . . . 8 n s s n s s n s n s s s n f 8 . . . . . .                                 ",
"                                  . . . . . - - - - - - - . - - - - - - - - . . . . .                                   ",
"                                    . . . . . . . . . . . . . . . . . . . . . . .                                       ",
"                                        . . . . . . . . . . . . . . . . . .   .                                         ",
"                                                    . .     . . . . . . .                                               ",
"                                                                                                                        ",
"                                                                                                                        ",
"                                                                                                                        ",
"                                                                                                                        ",
"                                                                                                                        ",
"                                                                                                                        ",
"                                                                                                                        "
};
