/* XPM */
static char *b6d3344254374914dccb74342c91d422Aa3nXouS6aVTmXpK[] = {
/* columns rows colors chars-per-pixel */
"60 60 167 2 ",
"   c #010102",
".  c #090607",
"X  c #070B04",
"o  c #03050B",
"O  c #09070B",
"+  c #060B0D",
"@  c #0D0A0C",
"#  c #110E0D",
"$  c #13100F",
"%  c #030614",
"&  c #040916",
"*  c #0C0B13",
"=  c #050B1B",
"-  c #080E1C",
";  c #120E13",
":  c #0A101F",
">  c #151212",
",  c #1A1616",
"<  c #1C1817",
"1  c #16111A",
"2  c #1A151B",
"3  c #1D191A",
"4  c #211C1C",
"5  c #25201F",
"6  c #060F22",
"7  c #070F2F",
"8  c #071025",
"9  c #081226",
"0  c #07122A",
"q  c #08132C",
"w  c #101522",
"e  c #1D1622",
"r  c #1F1921",
"t  c #071030",
"y  c #081634",
"u  c #07163B",
"i  c #091738",
"p  c #09183A",
"a  c #231D24",
"s  c #251E2A",
"d  c #272123",
"f  c #2A2524",
"g  c #2E2927",
"h  c #272028",
"j  c #2B242B",
"k  c #2F282A",
"l  c #322B2C",
"z  c #36302F",
"x  c #2D2532",
"c  c #302737",
"v  c #332B33",
"b  c #352C3A",
"n  c #3B3434",
"m  c #3F3836",
"M  c #3B333B",
"N  c #403936",
"B  c #40373E",
"V  c #443C3C",
"C  c #483F3E",
"Z  c #47403D",
"A  c #49413E",
"S  c #091A45",
"D  c #091C48",
"F  c #0B1D52",
"G  c #0B1E58",
"H  c #392F40",
"J  c #3E3343",
"K  c #0D246A",
"L  c #0D296B",
"P  c #0E2A74",
"I  c #0F2979",
"U  c #413745",
"Y  c #443A44",
"T  c #483F45",
"R  c #463A4A",
"E  c #493E4C",
"W  c #4B3E54",
"Q  c #4C4343",
"!  c #4D424C",
"~  c #504745",
"^  c #514947",
"/  c #51464B",
"(  c #554B4B",
")  c #584E4D",
"_  c #5B514E",
"`  c #4E4155",
"'  c #4F4258",
"]  c #514456",
"[  c #554A54",
"{  c #594D54",
"}  c #534559",
"|  c #55485A",
" . c #5A4D5B",
".. c #5E5354",
"X. c #5E515C",
"o. c #615655",
"O. c #635956",
"+. c #62555C",
"@. c #65595C",
"#. c #695D5D",
"$. c #6D625E",
"%. c #70645F",
"&. c #5F5260",
"*. c #625460",
"=. c #665961",
"-. c #685B62",
";. c #695C62",
":. c #6A5D63",
">. c #6A5E63",
",. c #6A5E64",
"<. c #6C5F68",
"1. c #6D6163",
"2. c #6E6262",
"3. c #6D6165",
"4. c #6F6169",
"5. c #726663",
"6. c #726565",
"7. c #726666",
"8. c #756966",
"9. c #786B67",
"0. c #72656A",
"q. c #756868",
"w. c #776A69",
"e. c #76686B",
"r. c #7A6D6A",
"t. c #7A6D6B",
"y. c #7E716D",
"u. c #7F726E",
"i. c #7A6C70",
"p. c #80736E",
"a. c #81746E",
"s. c #81746F",
"d. c #837573",
"f. c #837672",
"g. c #867874",
"h. c #877974",
"j. c #897B75",
"k. c #897A76",
"l. c #8A7C76",
"z. c #877978",
"x. c #8B7C7A",
"c. c #8F807B",
"v. c #8E807C",
"b. c #91837D",
"n. c #93847D",
"m. c #102D84",
"M. c #103183",
"N. c #11358C",
"B. c #153D9E",
"V. c #14409F",
"C. c #1643A5",
"Z. c #1744AB",
"A. c #1A4EB9",
"S. c #1B55BF",
"D. c #1A4FC0",
"F. c #1C58C6",
"G. c #1E5ED3",
"H. c #1F62D7",
"J. c #2165DA",
"K. c #2165E4",
"L. c #226CE5",
"P. c #236CE9",
"I. c #2471ED",
"U. c #2575F2",
"Y. c #938480",
"T. c #978884",
"R. c #988983",
/* pixels */
"| | | } } ' ' ' ] ' ' ' } } ' | | | | | | } } } ` ' ] ] } } } | | } ` ` ` ` ' ' } ' ' } } } | | | | | | | | | | | | | | ",
"| | | | } } } } } ` } } ' } } | } | | | ] ` ` } } } ` ` ` ] } } } ` ` ` ` ' ` ' } } } } } } | } | | | | | } | | | | } | ",
"} | |  . . . .&. .X. .X.X.X. .| } | | ' ` E ! | X.X.{ ` ! } } ] ` ! [ | X.&. .{  .X. . . . .| | | | | } | | | } | | | | ",
"} | | X.*.-.-.-.=.-.>.>.,.-.*. .} ` ] ` Y ! ! { X.X...[ / ! ! Y U ! { o.3.3.@.X.X.>.,.,.@.+.X. .| } } } } } | | | | | | ",
"' |  .*.3.7.e.e.8.8.8.r.e.7.>.X.! ` ` ! m ! ( ( _ ..O._ ^ V b b M R ..3.t.t.7.#.@.$.8.9.1.@.+. .| | } ' ' } } | | | | | ",
"' |  .-.e.y.a.y.y.y.y.y.y.e.1...! J U J m m N V V V N N n k d a j n Q ..#.#.O.O.O.$.8.%.$.@.o.X. .| } } } | | | | | } | ",
"' } &.3.y.g.l.l.h.j.a.a.p.e.@.( J v x v M v f f f < > 5 3 > ; > > 3 l n V A A ~ ..$.........X.X. .+.&.&. . .| | | | | | ",
"' ' X.7.d.c.n.n.b.l.a.r.y.8...Y v h 3 3 3 3 > # @ X O $ @ O     . . @ # , 4 4 j V _ ( ( { { [ { +.-.,.-.=.&. .| | | | | ",
"W ' *.e.z.Y.R.R.b.k.t.8.8.@.~ v r > @       o     . O .                   O o ; a M N Q / ! T ] -.7.e.8.>.+.+.{ | | | | ",
"' ' &.0.z.Y.T.T.T.b.k.8.O.Q V j O   .     o - & & & : = = & & % % & & % %       . ; a j M J J ! X.7.y.y.9.>.+. . .| | | ",
"' } &.<.i.h.z.z.z.d.t.#.C l k 2     o . o = 8 8 8 8 8 6 8 6 8 8 8 8 8 8 = o         . 1 d b J R { 5.d.a.t.8.>.@.&.| } } ",
"} |  .*.>.<.3.,.@.{ / Y v 4 ;       = = = 8 y y y y y y y y y y y y y y 8 - = &       @ e x J ! +.9.a.d.a.y.8.3.=. .} } ",
"} | |  .| | ] ! R M v a 2 @       & 6 8 8 y i p i i i i i i i i i i p p y 8 8 8 %       1 s c R ..7.y.p.a.y.t.7.-. .} W ",
"| | | | | | ] E U M x 2 O       % 8 y i y i i i i i i i i i i i i i i i i y y y 8 &       ; s M / o.#.5.9.t.e.7.>. .} } ",
"} } | X.-.-.X.! Y b f ;       & 8 y i p i u i i i i i i i i i i i i i i i p p i y 6 %       ; a v T / o.#.1.1.3.=. .} } ",
"' } | X.3.t.,.^ m j #       % 8 y i i i i i i i i i i i i i i i i i i i i i i y y y 8 &       O 2 j B / +.-.+.+. . .| } ",
"` ' X.X.8.l.5.Q l #       = q y y p i i i i i i i i i i i i i i p i i y p i i i p i y 9 =       . 1 j U ] ] |  .| | | } ",
"` ` { +.8.k.t.) d       & 6 y i i i i i i i i i i i i i i i i i p y i i i i i i i i y y 8 &       @ j b U R R W | | | | ",
"` ' X.o.8.y.$.n >     & 8 q i p i i i i i i i i i i i i i i i i i i i i i i i i y p i i y 6 &     . f M B Y E ] } | | | ",
"W ' X.@.$.$.A , X   & 8 y p i i i i i i i i i i i i i i i i i i i i i i i i i i p p y p i y 6 %   @ f n T / { | | | | } ",
"W '  .X.O._ l       % 8 y p i i i i i i i i i i i i i i i i i i i i i i i i i i i i i i p y 9 =   . , l C / { { | | | | ",
"' } { { ! V 3       & 8 y p i i i i i p i i i i i i i i i i i i i i i i i i i i i i i p p y 6 =     . 4 N Q { {  . .} } ",
"` ` ! T m v ;   o & 8 y y i p y 8 8 9 y p i i i y i i i i i i i i i i i i i i i i i i p i y y 0 & o   @ g A +.+. .| } } ",
"` W J M v a @   & 8 y p i i i i p S p p i i i i i i i i i i i i i i i i i i p y i i i y i i i y 9 &   . 3 C o.@.+. .} } ",
"| ] R b h r @   & 8 y p p q   t K I I F   X p i i i i i i i i i i i i i i i i i i i i i i i y y 9 &   ; g Z _ O.+. .| } ",
"| | E x h 2 o   & 8 y p p y q L B.Z.C.N.D q y y i i i i i i i i i i i i i i i i i i i i i i i y 6 & O 2 n Z ^ O.-. .| ] ",
"| | ! v r ; O   & 8 y y   D N.A.G.J.J.F.C.P X + i i i i i i i i i i i i i i i i i i i i i i i y 8 &   @ f m ^ ..+. .} } ",
"} | R b a @     & 8 y p X P A.K.U.U.U.P.G.V.i 6 i i i i i i i i i i i i i i i i i i i i i i i y 8 &     , n _ O.=. .W W ",
"} E T Y l , .   & 8 8 D K C.J.I.P.U.I.I.L.S.M.G q y i i i i i i i i i i i i i i i i i i i i i y 8 - O # 4 Z $.1.-.+.| W ",
"` W E ! m a .   & 8 + F m.A.L.U.I.I.I.U.I.G.B.K q q i i i i i i p y i i i i i i i i i i i i u y 9 - O # < V o.#.@. .} W ",
"} ] ] Q B k >   & 8 * D m.A.L.U.I.I.I.I.I.H.B.L 9 y i i i i i i i i i i i i i i i i i i i i i y 6 =   o @ k T ! ] } } } ",
"} ] ] ^ V l >   = 8 - S K C.H.I.I.I.I.I.L.S.M.G q y i i i i i i i i i i i i i i i i i i i i i q 6 =     ; a M Y E ] | | ",
"W W ! / Q z >   & 6 6 8   P D.K.I.U.U.L.G.V.i 6 i i i i i i i i i i i i i i i i i i i i i y 8 8 6 =   o e x H R W } | | ",
"W W ! { ^ n 3   & 8 8 =   D N.S.H.J.J.F.C.P X @ i i i i i i i i i i i i i i i i i i i i p y 6 6 6 =   * e x M R W ] | | ",
"W W [ X.) N 4 @ 8 6 6 8 y i q L B.Z.C.N.D q y i i i i i i i i i i i i i i i i i i i i i u y 8 6 6 =   * s b U U W W | | ",
"` ` { @.) n 4 o & = = 0 t 9   t K I I F   X u p i i i i i i i i i i i i i i i i i i i i y q 8 6 = o   @ s b U R R } | | ",
"` `  .@.( z >       6 6 6 9 y i i S p p i i i i i i i i i i i i i i i i i i i i i i i i 8 6 8 =       . a b R E W ] | } ",
"} ` ] { ! M 3       = 6 6 9 q t q q 9 y i i i i i i i i i i i i i i i i i i i i i i y q 8 6 6 6 .     > l V E W ] | | | ",
"] ` ! ! Q M a @     = 6 6 6 6 9 y p i p i i i i i i i i i y i i i i i i i i i i i y 8 6 6 6 8 = O O > f N / {  .| | | | ",
"} } ` R J x a ; .   o % 6 9 6 9 8 y i p p u i i i i i i i i i i i i i i i i i i y 0 6 6 8 6 & o   > l C / ..+.X. . .| } ",
"| } ] R H c s e *       & 8 6 6 6 8 i i i y i i i i i i i i y p i i i i y u i i 0 6 6 6 8 =       4 A _ o.#.#.+.&.| | } ",
"| } ] W U H c s e ;     % : 6 8 6 8 q q q y u u p p i i p i p p p i i u y q q 6 8 6 8 6 &       @ f A ) ..$.7.>.&. .} } ",
"| } } W R U U b x a *     @ : 8 8 6 6 6 6 q i i y y y y y i y y i y i i q 6 6 6 6 6 8 =       @ 4 N A ) O.%.9.5.-.&.| } ",
"| | } } W W E U c j j 4     * w 8 6 6 6 6 6 6 q 0 q t q q 8 q 8 6 q q 6 6 6 6 6 8 8 = &   . 4 l n A ..%.a.p.t.9.-.&.| W ",
"| | } ] |  .] T M v M k >   X * 6 6 6 6 6 6 6 6 6 6 6 6 6 6 6 6 6 6 6 6 6 6 6 6 6 = o X . 3 n Q A o.8.g.x.x.d.i.<.&.W W ",
"| | { }  .{ [ E Y M v k f 2       & 6 8 q 6 6 6 6 6 6 6 8 6 6 6 6 6 6 6 6 6 6 7 &       @ d m ! / $.k.x.k.x.x.z.e.*.| W ",
"} | |  .X.X.{ [ / E U v v a .       = 6 6 6 6 6 6 6 6 6 6 6 6 6 6 6 6 6 6 = = 6 o     # 2 v J ! { e.Y.Y.x.b.Y.z.i.=.W W ",
"} | | X.+.#.+...o.@.{ T j e 1 o       o o 6 6 6 q 8 6 6 6 8 8 6 6 6 q 6 6         @ f z z m R ] { 0.z.x.Y.Y.x.z.4.*.W | ",
"} }  .+.=.1.>.#.1.1.1.[ B j j 4 .         % = = : = - = = = = 6 6 = = & %     X > 5 V A C ~ ..+.+.1.t.d.d.d.d.4.<.&.W W ",
"} }  .=.4.8.t.t.t.9.1.../ R U v 2 O           . + @ + o     o o o     o     # g l N A ^ ~ o.8.7.+.-.>.<.<.<.<.=.&.| | | ",
"} }  .>.8.p.p.a.a.a.8.>.+.[ E Y c a 1 ; # .   @ , $ $ $ * @ . . O * @ @ $ 4 f n C ) O.O.#.%.9.9.>.+.| } |  .| |  .| | | ",
"W } &.<.t.g.l.h.f.a.8.7.#.X.[ E U M v v l d < 5 5 4 4 5 g d 3 ; 2 j g 4 z Q V V _ 7.9.p.9.9.8.5.>.X.W W W W W } | W | | ",
"W } &.0.d.x.n.x.d.a.t.7.#.../ E U R ] ( / ~ Q ~ Q V N Z C n l j j l v M ^ O._ ) 5.p.p.p.p.8.7.,.+. .W W W } | | } | | | ",
"W W *.e.h.Y.n.n.k.a.8.1.+.{ W U U ! -.7.$.8.p.9.$.@.o.O.) Q V B M v M R ..1.$.5.p.h.g.p.8.e.#.+.X. . .| &.&. .&. .| | | ",
"W | *.e.z.Y.T.x.d.a.e.1.@. .} W W { >.t.d.Y.b.d.t.t.t.e.#.) ! Q Y M H W &.e.t.d.x.x.a.p.8.#.+.&. .} }  . .+.+.+. . .} | ",
"W } &.<.d.z.x.h.y.8.3.#.+.X. .W }  .+.e.x.x.x.d.t.y.d.t.7.o.( / E T R W  .0.d.h.z.a.i.7.<.@.&.| |  .|  . .X.+. . .| | } ",
"| |  .*.4.i.e.4.4.-.*.&.&.| } } }  .X.<.e.i.i.e.0.0.4.<.=. . .| } ] W ]  .=.4.i.e.4.<.-.&.&. .| | } }  . . . . . . .} } ",
"| | | &.&.*.&.&.&.&. . . .| | } | |  .X.*.*.*.*.*.&.&.&.&. . . .{ | } | |  .&.*.&.&. .&. . . .} | | } } }  . .} | } }  .",
"| | | } | W ' ' } } } } | | |  .| } } } } ' ' } } } } } } | } | } | | | | } } } } } } } | | | |  .}  .}  .} | } | | | | ",
"| | | ' ' ' W W W W } } ' | |  .| | } ' W W W W W W ' W W } } | } | | | } } W W W W } W | W | | } }  .} } | } } | | | | "
};
