/* XPM */
static char *_50538de4d7b474fbc8bafba578fbc94AxzSYnQ0Er8t4Iyr[] = {
/* columns rows colors chars-per-pixel */
"50 56 126 2 ",
"   c black",
".  c #070A17",
"X  c #132700",
"o  c #232301",
"O  c #252523",
"+  c #282B2D",
"@  c #292434",
"#  c #2C3032",
"$  c #49483E",
"%  c #3C3C57",
"&  c #3D4245",
"*  c #59594D",
"=  c #475257",
"-  c #53635F",
";  c #616157",
":  c #5A5B74",
">  c #596164",
",  c #5D636B",
"<  c #616162",
"1  c #626275",
"2  c #6E767A",
"3  c #7D7D7E",
"4  c #6F6F85",
"5  c #6F6C8D",
"6  c #727285",
"7  c #757688",
"8  c #787F88",
"9  c #848485",
"0  c #828D92",
"q  c #8E999C",
"w  c #969697",
"e  c #989796",
"r  c #9D9D9D",
"t  c #A09E9F",
"y  c #8685A0",
"u  c #939AA7",
"i  c #969AAA",
"p  c #9594B4",
"a  c #9A9AB6",
"s  c #9F9FBC",
"d  c #95A1A6",
"f  c #97A2A8",
"g  c #9AA6AB",
"h  c #A5A5A5",
"j  c #A5A6AA",
"k  c #ABACAD",
"l  c #A1A1BF",
"z  c #ABADB9",
"x  c #ACB0B4",
"c  c #A8B5B8",
"v  c #B8B8B7",
"b  c #B6B6B8",
"n  c #BBBBBC",
"m  c #A3A4C0",
"M  c #AEBAC0",
"N  c #B1BDC4",
"B  c #BCBDC1",
"V  c #B4B6CE",
"C  c #ADABD1",
"Z  c #B3B3D3",
"A  c #B8BBD7",
"S  c #B7B7D8",
"D  c #BABBDA",
"F  c #BDC0C2",
"G  c #BCC4D7",
"H  c #BECBD2",
"J  c #C2C2C3",
"K  c #CBCBCD",
"L  c #C1CED6",
"P  c #CFCFD0",
"I  c #C2D0D6",
"U  c #C9D7DE",
"Y  c #D3D4D4",
"T  c #DBDCDA",
"R  c #C3C2E6",
"E  c #C6C5EA",
"W  c #C9CAEB",
"Q  c #CEDDE5",
"!  c #CED8E9",
"~  c #CFCFF4",
"^  c #CFD0F4",
"/  c #D1D2F6",
"(  c #D4DAF4",
")  c #D7D6FE",
"_  c #D8D7FF",
"`  c #D7DAFB",
"'  c #D9D9FF",
"]  c #E0DEFF",
"[  c #CFE0E5",
"{  c #D1E0E7",
"}  c #D7E6EF",
"|  c #DAE5F7",
" . c #DCEDF4",
".. c #DCE3FC",
"X. c #DEE9FA",
"o. c #DEF0F4",
"O. c #DFF0F8",
"+. c #E5E5E6",
"@. c #EBEBEA",
"#. c #EFEFF0",
"$. c #E1E2FF",
"%. c #EAE7FF",
"&. c #E1ECFD",
"*. c #ECEAFF",
"=. c #E5F6FF",
"-. c #E9F6FF",
";. c #E6F8FE",
":. c #E7F8FF",
">. c #E8FBFE",
",. c #E9FAFF",
"<. c #ECFAFF",
"1. c #E8FCFE",
"2. c #EBFDFF",
"3. c #ECFDFF",
"4. c #F3F3F3",
"5. c #F4F4F5",
"6. c #F5F6F6",
"7. c gray97",
"8. c #F1FFFF",
"9. c #F6FFFF",
"0. c #F8F8F9",
"q. c #FBFBFB",
"w. c #FBFBFC",
"e. c gray99",
"r. c #FDFDFD",
"t. c white",
/* pixels */
"t.t.t.t.t.t.t.t.t.t.t.t.t.t.t.t.t.q.4.4.7.4.4.7.4.4.7.4.4.7.4.4.q.t.q.t.t.t.t.t.t.t.t.t.t.t.t.t.t.t.",
"t.t.t.t.t.t.t.t.t.t.t.t.t.t.t.t.t.v                             b t.t.t.t.t.t.t.t.t.t.t.t.t.t.t.t.t.",
"t.t.t.t.t.t.t.t.t.t.t.t.t.q.+.+.@.n : 7 6 6 6 6 6 6 6 6 6 6 7 : B #.+.+.7.w.t.t.t.t.t.t.t.t.t.t.t.t.",
"t.t.t.t.t.t.t.t.t.t.t.t.t.+.      p *.' ] ] ] ' ] ] ] ] ] ] ' *.p       @.t.t.t.t.t.t.t.t.t.t.t.t.t.",
"t.t.t.t.t.t.t.t.t.t.q.7.Y K y i q G &.` ....................` &.G q u 0 K Y 7.t.t.t.t.t.t.t.t.t.t.t.",
"t.t.t.t.t.t.t.t.t.t.t.t.  % %.&.9.3.;.,.;.;.,.,.;.;.;.,.,.,.,.;.3.8.&.%.%   t.t.t.t.t.t.t.t.t.t.t.t.",
"t.t.t.t.t.t.t.t.t.q.F B s Z X.X.=.=.=.=.=.=.=.=.=.=.=.=.=.=.=.=.=.=.X.&.V s B J q.t.t.t.t.t.t.t.t.t.",
"t.t.t.t.t.t.t.t.t.t.    %.$.,.,.=.=.=.=.;.;.=.;.=.=.;.=.=.;.=.=.=.=.=.2.$.$.    t.t.t.t.t.t.t.t.t.t.",
"t.t.t.t.t.t.t.t.k r Z D &.&.=.=.=.;.;.=.,.=.=.=.;.=.=.=.,.=.;.=.;.=.=.=.&.&.D A r k t.t.t.t.t.t.t.t.",
"t.t.t.t.t.t.q.t.O   ' $.,.,.=.=.;.=.=.=.=.=.,.=.,.=.;.=.=.=.,.=.=.=.=.;.;.,.$.'   O t.t.t.t.t.t.t.t.",
"t.t.t.t.t.t.t.t.< . =.&.;.=.;.=.=.=.=.=.=.=.,.=.=.=.,.=.;.=.=.=.=.=.=.=.=.=.=.&.. < t.q.t.t.t.t.t.t.",
"t.t.t.t.t.t.t.t.$   ;.,.=.=.;.,.2.2.3.,.;.=.=.=.=.=.=.=.=.=.,.3.2.3.,.;.=.;.=.=.  $ t.t.t.t.t.t.t.t.",
"t.t.t.t.q.t.w o E / =.=.,.&.] A X , X A $.=.;.=.;.=.=.;.=.$.A X , X A ] &.,.=.=./ W o w t.q.t.t.t.t.",
"t.t.t.t.t.t.3   / ' =.;.=.=.' Z   @   Z ' &.;.=.=.;.=.;.X.' Z   @   Z ' =.,.=.=.' /   3 t.q.t.t.t.t.",
"t.t.t.t.q.t.9   / ' =.=.3.[   j t.7.t.h   { 3.=.;.=.=.3.{   h t.7.t.j   Q 2.=.;.' ^   9 t.q.t.t.t.t.",
"t.t.t.t.q.t.9   / $.=.=.3.[   h t.q.t.h   { 3.=.,.=.=.3.{   h t.q.t.h   [ 3.=.,.' /   9 t.t.t.t.t.t.",
"t.t.t.t.t.t.9    .2.=.=.3.{   h t.7.t.h   { 3.=.;.=.=.3.{   h t.7.t.h   { 3.=.;.2. .  9 t.q.t.t.t.t.",
"t.t.t.t.q.t.9    .,.=.=.3.{   h t.7.t.j   { 3.=.=.;.=.3.{   h t.7.t.h   { 3.=.=.,. .  9 t.q.t.t.t.t.",
"t.t.t.t.q.t.9    .,.;.=.3.[   h t.t.t.h   Q 3.=.=.;.=.3.Q   h t.t.t.h   Q 3.=.;.2. .  9 t.q.t.t.t.t.",
"t.t.t.t.q.t.9    .,.=.=.,.} 5 z T Y T z 5 } 2.=.;.=.=.2.} 5 z T Y T z 5 } 2.=.=.,. .  9 t.t.t.t.t.t.",
"t.t.t.t.t.t.9    .,.,.=.;.=.%.C       C %.&.;.=.=.=.=.;.=.%.C       C %.=.;.,.=.,. .  9 t.t.t.t.t.t.",
"t.t.t.t.q.t.9    .,.=.=.=.=...! c N c ! X.=.=.=.=.=.=.;.=...! c N c ! X.=.=.=.=.,. .  9 t.q.t.t.t.t.",
"t.t.t.t.q.t.9   o.2.;.=.=.=.,.2.8.3.8.,.=.=.=.8.3.8.8.=.=.=.2.8.3.8.3.=.=.=.=.=.2.o.  9 t.q.t.t.t.t.",
"t.t.t.t.t.t.9   ( $.=.,.=.=.=.=.=.=.=.=.=.=.;.g q q g =.=.=.=.=.=.=.=.=.=.=.,.=.$.(   9 t.q.t.t.t.t.",
"t.t.t.t.t.t.9   ~ ' =.=.=.,.,.=.;.=.=.=.=.3.9.#     # 9.3.=.=.;.=.=.;.;.=.,.;.=._ ~   9 t.q.t.t.t.t.",
"t.t.t.t.q.t.9   / ' =.=.=.=.=.=.=.=.=.=.3.g 2 & + + & 2 g 3.=.=.=.,.=.=.=.=.=.=.' ^   9 t.q.t.t.t.t.",
"t.t.t.t.t.t.9   ~ ' =.=.=.=.=.=.=.;.;.=.8.>             > 8.=.=.=.=.=.,.=.=.,.=.' /   9 t.t.t.t.t.t.",
"t.t.t.t.q.t.9   / ' ;.=.=.;.,.=.;.=.=.=.;.o. . . . . . . .;.=.=.;.=.=.=.=.;.=.=.' ^   9 t.q.t.t.t.t.",
"t.t.t.t.q.t.9   / ` =.,.=.=.=.=.=.;.=.=.=.;.2.;.,.,.;.2.,.=.=.=.=.=.;.=.=.;.;.=.' ^   9 t.q.t.t.t.t.",
"t.t.t.t.q.t.9   / ' _ ' 2.,.,.=.;.=.=.,.,.=.=.=.;.=.;.=.;.2.,.=.=.=.=.;.,.3.' _ ' /   9 t.t.t.t.t.t.",
"t.t.t.t.t.t.9   ~ ' ) '  . .=.=.=.=.,.=. .=.=.;.=.=.;.=.=. .O.;.=.=.=.;. . .' _ ' ^   9 t.q.t.t.t.t.",
"t.t.t.t.q.t.9   / ' ' ~   2 8.=.=.=.3.q   { 3.;.;.,.;.2.Q   q 8.=.=.=.8.2   / ' ' ^   9 t.q.t.t.t.t.",
"t.t.t.t.q.t.9   ~ ' ' ^   8 <.=.=.=.3.d   { ;.&.=.&.&.-.!   f 8.=.=.&.,.8   ^ ' ' /   9 t.q.t.t.t.t.",
"t.t.t.t.q.t.9   / ' ' ^   4 ] ` 2.=.8.u   R ' ) ) ) _ ' E   f 8.=.;...' 4   ~ ' ' /   9 t.t.t.t.t.t.",
"t.t.t.t.q.t.9   ^ ' ' /   7 ' ` &.$.-.i   R ' ' _ ' _ ] E   u ;. .&.` ] 7   / ' ' /   9 t.q.t.t.t.t.",
"t.t.t.t.t.t.9   ^ ' ' /   1 *.] ] ' %.0   R $.' _ ' _ ] R   0 *.] $.' *.1   / ' ' /   9 t.q.t.t.t.t.",
"t.t.t.t.q.t.9   / ' ' / a s m m m m m l p ^ ' _ _ _ _ ' / p l m l l l m l a / ' ' ~   9 t.q.t.t.t.t.",
"t.t.t.t.q.t.9   / ' ) ' *.E           Z -.` _ _ _ _ ` _ ) -.Z           E *._ _ ' ~   9 t.t.t.t.t.t.",
"t.t.t.t.t.t.9   ~ ' ) ) _ / Z S S Z V ~ _ _ ' _ _ _ ` _ _ _ W Z S S S Z ~ ) ) _ ' /   9 t.q.t.t.t.t.",
"t.t.t.t.q.t.9   / ' ' ' _ ' $.' $.$.' ' ) _ ` _ ` _ ' _ ' ) ' $.] $.] $.' ) ' _ ' /   9 t.q.t.t.t.t.",
"t.t.t.t.t.t.9   ~ ' ' ) ' ) ) ) _ _ ) _ _ ` ` _ ` _ ` _ _ ` _ _ ) ` _ _ ` _ _ _ ' /   9 t.q.t.t.t.t.",
"t.t.t.t.q.t.9   / ' _ ' ) ' ) ' _ ' _ _ _ _ _ ` ' _ ' _ ` _ _ ` _ _ _ ` ' ` _ _ ' ^   9 t.t.t.t.t.t.",
"t.t.t.t.q.t.9   ^ ' ' _ _ _ ' _ _ ` _ _ ` _ _ _ _ _ ' _ _ _ _ _ _ _ _ _ _ _ _ _ ' /   9 t.q.t.t.t.t.",
"t.t.t.t.q.t.9   / ` _ ' _ _ _ _ ` _ _ ) _ ` ` _ ` _ ` _ _ ` ' ` ` _ _ ' ` _ _ ' ' /   9 t.q.t.t.t.t.",
"t.t.t.t.h   R ' =.=.) ' ` _ ` _ ) ) ' ) ) _ ' ' _ ` _ _ _ _ _ _ _ ` _ ` ' _ ' ) ;.=.' R   h t.t.t.t.",
"t.t.7.t.j   W ' =.=.' _ _ _ _ ' ' ' ` ..' ' _ ' _ _ _ ` ` ' ` ' ` ' ` _ ) _ ) ' ;.=.' E   j t.7.t.t.",
"t.t.v   D *.=.;.=.=.) ) ..' ) ..1.;.;.;.3.' _ ' $.' ..) ' 3.;.;.;.;.X.) ' $._ _ =.;.;.=.*.S   v t.q.",
"t.t.K ; V R | &.=.=...' R W ' X.;.=.;.=.2...' W R R E ' ..;.=.=.=.=.X.' W R ` ' =.=.=...R V ; P t.t.",
"t.t.t.t.w   E $.3.8.9.=.  - t.;.;.;.=.=.=.3.9.        9.3.=.=.=.;.=.,.t.>   =.8.8.3.%.E   e t.t.t.t.",
"t.t.q.t.K w V S L I L H t x L Q =.=.=.=.=.U H k h h k H U ;.=.=.=.;.Q L x r H I L L S V e K t.q.t.t.",
"t.t.t.q.t.t.*           t.@.  0 t.3.8.3.t.=   t.t.t.t.  = t.,.8.2.t.0   @.t.          * t.t.t.t.t.t.",
"t.t.t.t.q.t.P n J J B J t.@.n F c M M M c F n 7.w.t.7.n F M c N c c F n @.t.K n F F n K t.q.t.t.t.t.",
"t.t.t.t.t.t.t.t.t.t.t.t.t.t.t.Y           @.t.t.t.t.t.t.@.          Y t.t.t.t.t.t.t.t.t.t.t.t.t.t.t.",
"t.t.t.t.t.t.t.q.q.q.q.q.t.t.t.@.Y T Y Y Y 7.t.t.t.t.t.q.7.Y Y Y Y Y @.t.t.t.t.q.q.q.q.t.t.t.t.t.t.t.",
"t.t.t.t.t.t.t.t.t.t.t.t.t.t.t.t.t.t.t.t.t.t.q.t.t.t.t.t.t.t.t.t.t.t.t.t.t.t.t.t.t.t.t.t.t.t.t.t.t.t.",
"t.t.t.t.t.t.t.t.t.t.t.t.t.t.t.t.q.t.e.t.e.t.t.t.t.t.t.t.t.t.q.t.t.t.t.t.t.t.t.t.t.t.t.t.t.t.t.t.t.t."
};
