/* XPM */
static char *_0c7b89e8d9248dccc3025a032a3de8ascku3WpexE3ycFCP[] = {
/* columns rows colors chars-per-pixel */
"50 50 227 2 ",
"   c None",
".  c black",
"X  c #000001",
"o  c #000101",
"O  c #000102",
"+  c #000103",
"@  c #010103",
"#  c #040000",
"$  c #050000",
"%  c #050200",
"&  c #050400",
"*  c #050500",
"=  c #000104",
"-  c #000105",
";  c #010105",
":  c #000106",
">  c #010206",
",  c #010207",
"<  c #050800",
"1  c #060A00",
"2  c #010208",
"3  c #010309",
"4  c #01030A",
"5  c #01040C",
"6  c #01040D",
"7  c #01040E",
"8  c #02040E",
"9  c #02040F",
"0  c #02050F",
"q  c #060B08",
"w  c #020510",
"e  c #020511",
"r  c #020611",
"t  c #020612",
"y  c #030712",
"u  c #030713",
"i  c #030714",
"p  c #030715",
"a  c #030814",
"s  c #030816",
"d  c #030916",
"f  c #030917",
"g  c #030A17",
"h  c #060817",
"j  c #060C14",
"k  c #030918",
"l  c #030919",
"z  c #030A19",
"x  c #030A1A",
"c  c #030A1B",
"v  c #060818",
"b  c #040A1B",
"n  c #040B1B",
"m  c #030B1C",
"M  c #040A1C",
"N  c #040B1C",
"B  c #040B1D",
"V  c #040C1D",
"C  c #070F1C",
"Z  c #040C1E",
"A  c #040D1E",
"S  c #040D1F",
"D  c #050D1F",
"F  c #050E1F",
"G  c #050D20",
"H  c #060C20",
"J  c #050E20",
"K  c #050E21",
"L  c #050F21",
"P  c #050D22",
"I  c #050D23",
"U  c #050F22",
"Y  c #060F22",
"T  c #060F23",
"R  c #061023",
"E  c #061024",
"W  c #061025",
"Q  c #061125",
"!  c #071125",
"~  c #061026",
"^  c #061126",
"/  c #071126",
"(  c #061027",
")  c #061127",
"_  c #071127",
"`  c #081120",
"'  c #081122",
"]  c #081124",
"[  c #081224",
"{  c #081225",
"}  c #061028",
"|  c #061128",
" . c #071128",
".. c #061129",
"X. c #071229",
"o. c #06112A",
"O. c #06112B",
"+. c #07122A",
"@. c #07122B",
"#. c #07132C",
"$. c #07132E",
"%. c #07142F",
"&. c #081328",
"*. c #08132A",
"=. c #08132B",
"-. c #08132E",
";. c #08142C",
":. c #08142D",
">. c #08142E",
",. c #08142F",
"<. c #09152F",
"1. c #071534",
"2. c #071535",
"3. c #081430",
"4. c #081431",
"5. c #081531",
"6. c #081432",
"7. c #081532",
"8. c #091532",
"9. c #081533",
"0. c #091533",
"q. c #081534",
"w. c #081634",
"e. c #091634",
"r. c #081635",
"t. c #091635",
"y. c #081636",
"u. c #091636",
"i. c #091736",
"p. c #091737",
"a. c #07173C",
"s. c #091738",
"d. c #091739",
"f. c #09173A",
"g. c #091839",
"h. c #09183A",
"j. c #09183B",
"k. c #08183C",
"l. c #09183C",
"z. c #09193D",
"x. c #091640",
"c. c #091741",
"v. c #091643",
"b. c #081647",
"n. c #0A1A43",
"m. c #0A1B45",
"M. c #0A1B47",
"N. c #081C49",
"B. c #081C4A",
"V. c #0B1D54",
"C. c #0C1F5F",
"Z. c #0A225E",
"A. c #0A245E",
"S. c #0C2163",
"D. c #0C2263",
"F. c #0D2365",
"G. c #0C2866",
"H. c #0D2569",
"J. c #0C2769",
"K. c #0E256D",
"L. c #0C296D",
"P. c #0E2773",
"I. c #0E2875",
"U. c #0F2877",
"Y. c #0F2A7B",
"T. c #0F317C",
"R. c #0F317D",
"E. c #102C81",
"W. c #112F89",
"Q. c #103284",
"!. c #113788",
"~. c #10348C",
"^. c #123A90",
"/. c #153C9D",
"(. c #153EA2",
"). c #143FA2",
"_. c #143EA3",
"`. c #15409C",
"'. c #15409F",
"]. c #15429F",
"[. c #1543A0",
"{. c #1440A2",
"}. c #1745AA",
"|. c #1848B1",
" X c #184AB2",
".X c #194CB6",
"XX c #184AB9",
"oX c #1A50B8",
"OX c #1A50B9",
"+X c #1A50BC",
"@X c #1A51BC",
"#X c #1A51C3",
"$X c #1B55C1",
"%X c #1D58C7",
"&X c #1C59C7",
"*X c #1D59CD",
"=X c #1D5BCF",
"-X c #1E5CD8",
";X c #1F62D5",
":X c #1F62D8",
">X c #2064D8",
",X c #2065DB",
"<X c #2063DF",
"1X c #226AE0",
"2X c #226BE3",
"3X c #2269E7",
"4X c #236DE5",
"5X c #236DE6",
"6X c #2269E8",
"7X c #236EE8",
"8X c #236DEB",
"9X c #236EEB",
"0X c #236DEC",
"qX c #2471EC",
"wX c #2470ED",
"eX c #2471ED",
"rX c #2472ED",
"tX c #2470EE",
"yX c #2472EE",
"uX c #2472EF",
"iX c #2573EF",
"pX c #2574F0",
"aX c #2574F1",
"sX c #2575F1",
"dX c #2575F2",
"fX c #2576F3",
"gX c #2676F3",
/* pixels */
"                                                                                                    ",
"                                                                                                    ",
"                                                                                                    ",
"                                      . . . . .   . . . . . .                                       ",
"                                . . . . . . . . . . . . . . . . . .                                 ",
"                              . . . . . . . . . . . . . . . . . . . .                               ",
"                            . . . . = u u u 0 u u u u u u u u . . . . . .                           ",
"                        . . . . . . u K K ~ K R K K T T K T K u . . . . .                           ",
"                      . . . . 3 k i K 6.q.w.6.6.7.7.w.7.7.w.7.K h s 3 . . .                         ",
"                    . . . . = n ..} 3.s.s.s.s.l.s.s.s.s.s.l.s.3.....m . . . .                       ",
"                  . . . . . k O.w.w.s.s.s.s.s.s.s.s.s.s.s.s.s.w.w.s.O.k . . . . .                   ",
"                  . . . . s ..w.h.l.s.s.s.s.s.s.s.s.s.s.s.s.s.s.h.h.w...s = . . .                   ",
"                . . . . i ~ w.s.s.s.s.s.s.s.s.s.s.s.s.s.s.s.s.s.s.s.s.w...i . . . .                 ",
"              . . . . u ~ w.s.s.s.s.s.s.s.s.s.s.s.s.s.s.s.s.s.s.s.s.s.s.w.~ u . . . .               ",
"              . . . u ~ w.h.s.s.s.s.s.s.s.s.s.s.s.s.s.s.s.s.s.s.s.s.s.s.h.7.T i . . .               ",
"            . . . u T 2.s.s.s.s.s.s.s.s.s.s.s.s.s.s.s.s.s.s.s.s.s.s.s.s.s.s.7...i . . .             ",
"            . . . i =.s.h.s.s.s.s.s.s.s.s.s.s.s.s.s.s.s.s.s.s.s.s.s.s.s.s.h.s.*.h . . .             ",
"          . . . . n *.w.s.s.s.s.s.s.s.s.s.s.s.s.s.s.s.s.s.s.s.s.s.s.s.s.s.s.w.*.s . . .             ",
"          . . 3 k ..w.s.s.s.s.s.s.h.s.s.s.s.s.s.s.s.s.s.s.s.s.s.s.s.s.s.s.s.s.w...n 3 . .           ",
"          . . 5 K w.h.s.s.s.s.s.s.w.w.s.s.s.s.s.s.s.s.s.s.s.s.w.u.s.w.s.s.s.s.h.7.K 0 . .           ",
"          . . 5 K 7.h.s.s.s.s.7.' ' =.h.s.w.s.s.s.s.s.s.s.s.s.=.C ' 7.h.s.s.s.h.7.K 5 . . .         ",
"          . . 0 K 7.s.s.l.w.q v.F.H.V.j =.l.s.s.s.s.s.s.l.=.j V.H.F.v.q w.h.s.s.7.K 0 . . .         ",
"          . . 0 K 7.s.s.s.w.1 J./.(.Q.~ { s.s.s.s.s.s.s.s.~ *.Q.(./.L.* w.s.s.s.7.K 5 . . .         ",
"          . . 0 K 7.h.l.1 w.~.@X>X>X%X(.Z.% w.l.s.s.l.w.% Z.(.%X>X>X@X~.w.1 l.s.7.C 5 . . .         ",
"          . . 0 K 7.h.w.K G.#X3XsXgX7X-X^.h s.w.s.s.s.s.v ^.-XwXfXsX3X#XG.K s.s.7.K 0 . . .         ",
"        . . . 5 K 7.s.:.S.].<XwXiXwXwX7XOXU.m.:.s.s.=.m.I..X7XwXqXiXiX,X].S.*.s.7.K 5 . . .         ",
"        . . . 0 K #.:.{ P.|.4XsXwXwXiXsX%XW.M.*.s.s.*.m.~.&XsXiXqXqXfX4X XP.' 7.O.K 3 . .           ",
"        . . . 5 R K ~ ~ K.}.1XaXqXiXwXwX$XE.m.*.s.s.*.m.E.$XwXwXqXwXsX<X}.K.{ K K R u . .           ",
"          . . u T T } w.v.R.=X7XiXfXwX<X[.b.l.w.s.s.w.l.b.].<XwXfXsX0X=XT.v.w.T R T u . .           ",
"          . . 3 C K ..2.% l._.=X2X4X:X.XL.% w.s.s.s.l.w.% K.XX;X7X1X=X_.a.* 2...K C 0 . .           ",
"          . . . 3 M T T *.s.B.!. X.X].A.l.7.s.s.s.s.s.s.O.l.A.]..X X!.M.s...T ..C = . . .           ",
"          . . . . k ..K 3.=.. v.U.Y.C.% C l.s.s.s.s.s.h.l.C % C.Y.I.b.% 7.#.K ~ k . . .             ",
"            . . . m T T K ~ w.h.h.h.w.s.s.s.s.s.s.s.s.s.s.s.s.s.s.s.s.w.~ K R ~ k . . .             ",
"            . . . 3 k T ~ K ..7.:.7.7.h.s.s.s.s.s.s.s.s.s.l.s.w.=.7.6.=.K ~ K n 3 . . .             ",
"              . . . = K K ~ K *.w.w.2.h.s.s.s.s.s.s.s.s.s.s.s.s.2.y.*.C T T K = . . .               ",
"              . . . . = n ~ T T ~ ~ #.a.h.s.s.s.s.s.s.l.s.s.s.=.T } T T ..M = . . .                 ",
"                . . . . 0 M ~ R K K ~ 3.3.3.3.3.q.6.7.7.6.6.7.} K K T T m w . . .                   ",
"                  . . . . = C ~ T T R K ~ T T R T T K ~ Y Y T K T T T C = . . . .                   ",
"                    . . . . 5 m T ..~ K K R R K K K T K K K ~ { ~ T m 0 . . . .                     ",
"                      . . . . u C K K T T T R ~ T T T T T T K K K K u . . . .                       ",
"                        . . . . 4 = h ~ ~ ~ ~ ~ ~ ~ ~ ~ ~ ~ ~ i = 3 = . . .                         ",
"                          . . . . . = m n m k k k m k k k M m 3 . . . . .                           ",
"                            . . . . . . . . . . . . . . . . . . . . .                               ",
"                              . . . . . . . . . . . . . . . . . . .                                 ",
"                                    . . . . . . . . . . . . . .                                     ",
"                                            . .                                                     ",
"                                                                                                    ",
"                                                                                                    ",
"                                                                                                    ",
"                                                                                                    "
};
