/* XPM */
static char *e1f8b1518c184edcea71328c81566fddfnj30Fbs3EbmoAkR[] = {
/* columns rows colors chars-per-pixel */
"60 60 168 2 ",
"   c #020202",
".  c #090707",
"X  c #060A02",
"o  c #0A0807",
"O  c #02040C",
"+  c #09070A",
"@  c #060B09",
"#  c #0C0A0B",
"$  c #110E0E",
"%  c #13100F",
"&  c #020612",
"*  c #050A15",
"=  c #0C0B12",
"-  c #050B1B",
";  c #090E19",
":  c #120E13",
">  c #161213",
",  c #191515",
"<  c #1B1816",
"1  c #161119",
"2  c #1A151A",
"3  c #1E191B",
"4  c #221D1C",
"5  c #24201E",
"6  c #060F22",
"7  c #070F2A",
"8  c #061024",
"9  c #081124",
"0  c #07122A",
"q  c #08132E",
"w  c #1B1520",
"e  c #1F1922",
"r  c #071333",
"t  c #091635",
"y  c #091738",
"u  c #09183A",
"i  c #231C24",
"p  c #251D29",
"a  c #262122",
"s  c #2A2425",
"d  c #2D2827",
"f  c #272028",
"g  c #2B242B",
"h  c #312A2D",
"j  c #36302F",
"k  c #38322F",
"l  c #2D2532",
"z  c #312735",
"x  c #332B34",
"c  c #352C39",
"v  c #382F3B",
"b  c #373030",
"n  c #3A3333",
"m  c #3F3835",
"M  c #3C333C",
"N  c #3F3839",
"B  c #413937",
"V  c #41373F",
"C  c #443C3C",
"Z  c #48413E",
"A  c #0A1B45",
"S  c #091B4C",
"D  c #0A1C54",
"F  c #0A2058",
"G  c #3D3343",
"H  c #0C2361",
"J  c #0D286B",
"K  c #0E2772",
"L  c #0F2C7B",
"P  c #102B7F",
"I  c #413743",
"U  c #443A44",
"Y  c #483E46",
"T  c #423748",
"R  c #463A4B",
"E  c #493D4E",
"W  c #4B3E54",
"Q  c #4C4344",
"!  c #4D424B",
"~  c #504647",
"^  c #524946",
"/  c #51464C",
"(  c #544B4C",
")  c #584F4D",
"_  c #5B514F",
"`  c #4E4155",
"'  c #4F4258",
"]  c #514555",
"[  c #554A53",
"{  c #594E54",
"}  c #534559",
"|  c #55485A",
" . c #5A4D5B",
".. c #5D5353",
"X. c #5E515C",
"o. c #615655",
"O. c #645A57",
"+. c #62555C",
"@. c #655A5B",
"#. c #695D5C",
"$. c #6C615D",
"%. c #5F5260",
"&. c #625560",
"*. c #655961",
"=. c #695C63",
"-. c #6A5D63",
";. c #6A5E62",
":. c #6B5F64",
">. c #6E6262",
",. c #6D6065",
"<. c #6F6169",
"1. c #716562",
"2. c #716564",
"3. c #726666",
"4. c #756966",
"5. c #786C67",
"6. c #72656A",
"7. c #746768",
"8. c #756868",
"9. c #76696B",
"0. c #776A6A",
"q. c #7A6D6B",
"w. c #7C6F6D",
"e. c #7E716C",
"r. c #7E716D",
"t. c #7B6E70",
"y. c #7F7172",
"u. c #80736F",
"i. c #81746F",
"p. c #82746E",
"a. c #837574",
"s. c #867974",
"d. c #877974",
"f. c #897B75",
"g. c #8A7C76",
"h. c #877978",
"j. c #8B7D7A",
"k. c #8F807B",
"l. c #8F807C",
"z. c #91827D",
"x. c #93847D",
"c. c #103281",
"v. c #12358C",
"b. c #123A8F",
"n. c #123591",
"m. c #143D9D",
"M. c #153EA1",
"N. c #1643A6",
"B. c #1745AB",
"V. c #1847AF",
"C. c #174AAD",
"Z. c #194DB5",
"A. c #1B55C4",
"S. c #1C57CE",
"D. c #1E5CCD",
"F. c #1E5DD1",
"G. c #1E5EDA",
"H. c #1F60D2",
"J. c #2063D6",
"K. c #2065DB",
"L. c #2165E3",
"P. c #2269E3",
"I. c #236DEA",
"U. c #2471ED",
"Y. c #2575F1",
"T. c #948580",
"R. c #978883",
"E. c #998A84",
/* pixels */
"| | | } } ' } ' } ` } ' ' } } } | | | | | } } } ' } ' ' } } | | | } ' W ' ' ' ' } ' ' } } } } } | | | | | | | | | } | | ",
"| | | } } } } } } } } } } } } } | | | } | ] } } } } } ' } } } } | } } ` ' } ] } } } } } } } | | | | | | } | | | | | | | ",
"} | |  . . . .%. .X.X.X. . . .| } | | } ]  . .|  . .X.X. .] } | |  . . . . . .X. .X. . . . . .| | | | } | | } | | | | | ",
"} | | X.*.*.=.*.=.*.=.=.=.*.*.| ] } | ] `  .X.{ { +.#.=.X.[ ! ` | X.O.+.+.@.+.+.*.,.,.=.=.+. . .| } } } } | } | | } | | ",
"} }  .*.,.7.9.7.4.4.4.9.9.2.=.X.| ` ` ! [ [ ........O.$.@.( U G E ..=.>.#.#.#.$.1.2.1.>.#.@.+.{ | | } W } } } | | | | | ",
"' ' %.*.9.w.i.r.e.e.e.e.a.r.7.*. .! R ! [ Q Q ....^ ^ _ ..( G x v / #.1.$._ O.7.4.>.$.$.#.#.+.X. .| | | } } | | | | } | ",
"' } X.,.w.s.g.g.f.d.f.i.0.0.4.+.` G M G C n j B Z B m k n n h p f B ~ ^ Z C ( @.@.o.O.@.#.@.+.X.X.X.&. .%.| | | | | | | ",
"W } %.7.a.k.x.x.z.k.z.i.1.4.,.[ v z h h a 3 < 4 s d a > # , < > 3 i d i a d m Y ~ ~ _ ..+.+.X.X.&.=.:.=.*.%. .| | | | | ",
"W } %.6.h.T.R.R.j.z.z.f.r.$.O.! c i 1 # + .   X o % >       @ .   # . O . + 3 g x m Y / / [ ] [ *.6.5.6.,.+. .{ | | | | ",
"' ' &.6.h.T.R.l.s.s.j.s.9.O.Q M g 1               @ O           O             ; i g h m V I R ` *.5.i.w.5.#.+.+. .| | | ",
"W } %.:.t.h.h.y.9.w.t.2...C h w 1 # .     O * * * - - * * * * * * * - * &       # 2 i f z G R [ +.1.w.i.q.7.=.@. . .} } ",
"} } %.&.=.<.6.=.X...+./ M a : .   O *   O 6 0 0 0 0 8 0 0 7 0 7 0 8 8 0 - O     O . = : i z G E ( O.5.a.i.q.0.>.*.| } } ",
"| | | | | %.%.] U U U v f >       * ; - - 0 t t t t r r r r r r r t t y q - * - &       = w l G ! ) $.5.5.r.e.4.=. .} W ",
"| | } | } | | ! M z z i =       & 9 0 0 0 t u u y u u u u u u u y u u u r q 0 0 - O       # 2 g B / o.$.1.4.0.9.;. .} } ",
"} | |  . .X.+.[ I x a :       O - q t t y y y y y y y y y u u u y y y y u r r y q - O       = 1 x Q ..+.o.@.>.,.*. .| } ",
"' } %.&.@.#.,...N s , .     O - q t u u y y y y y y y y y t u u y y y u u u u u r q 6 O       . i c Y / / { X.+.&.| } } ",
"W `  .=.1.4.5.) d < # .   * - q y y y y y y y y y y y y y y y y y y y y u t y y t t q 6 O       = i z U I E ]  .| } | | ",
"W W  .@.7.5.1.Z ,     O ; 9 q t u u y y y y y y y y y y y y y y y y y y y u y y u u t q 6 O     . : i z M I R ` ] | | | ",
"W W [ @.9.4.O.k       O ; q y y y y y y y y y y y y y y y y y y y y y y y y y y y y t y q 6 &       , g x M I R ` | } | ",
"W W [ ..o._ C 4     & 6 r t y y y y y y y y y y y y y y y y y y y y y y y y y y y y y y t q 6 * O   # 4 n Y U E ] | | | ",
"` W [ / Q k 4 o   & 9 q y y y y y y y y y y y y y y y y y y y y y y y y u t t u y y u y y y q 6 &   # 4 m Q [ [ ] ] | | ",
"` ` ! Y N f #   . & 9 q y u y y y y y y y y y y y y y y y y y y y y y y t u u u y y t y u y r ; &     $ d Q ! / ! ` ] } ",
"] ` U M b 4       - 6 q t u y y y y y y y y y y y y y y y y y y y y y y u y u t y y y u y y r 9 *       4 C Q Q ! ! ` } ",
"] ` E M x ,   O ; 9 q t y y y y y y y y y y y y y y y y y t y y y y y y y u t 7 9 9 q u u y t r 8 * O   4 m Z / [ ] } } ",
"` E R v g :   & 6 q u u y y y y y y y y y y y y y y y y y y y y t u u u y y u A A A u t y y y y t 6 * # 4 k Z .... .} } ",
"R U G l i #   & 6 q y u y y y y t y y y y y y y y y y y y y y y u u u u ;   u K P P D   X u u y q 6 &   % h ( #.+. .' ' ",
"E U c f 3 #   O 6 q y t y y y y y y y y y y y y y y y y y y y y u t t q u A c.B.Z.V.v.F u t t t q - &   o 5 ) $...[ ` W ",
"` R v g e +   & - q y u y y y y y y y y y y y y y y y y y y y y t u 9   H M.A.K.K.K.D.B.L X X u t 6 ; . # 5 Z _ { | W ' ",
"} W M g 3 #   & - q y u y y y y y y y y y y y y y y y y y y y y u t t q b.S.I.Y.Y.Y.I.G.N.S 0 t q 6 ; . o < n ) [ | W W ",
"` R M g 3 # . * 8 q y y y y y y y y y y y y y y y y y y y y y y t 0 D P Z.K.U.U.Y.U.Y.I.A.v.H t 8 6 &     , n ( { [ [ W ",
"` E G d , . . * 8 q y u y y y y y y y y y y y y y y y y y y y y t ; H n.A.U.Y.U.U.U.Y.Y.D.M.K q - 8 &     > h Y [ | } } ",
"` E U h 1     O ; q y y y y y y y y y y y y y y y y y y y t y y t 9 H n.A.I.Y.I.U.I.Y.U.J.m.J t 6 - O     $ i c R } } } ",
"W R R x 3 .   O 6 0 r r y y y y y y y y y y y y y y y y y y y y t 0 S J C.K.I.U.Y.Y.I.P.A.c.D q 8 6 &   O 1 i z T W | | ",
"E T G n d >   & 6 8 8 q y u y y y y y y y y y y y y y y y y y y y y 0 X c.A.L.Y.Y.U.P.F.m.r   8 6 6 *   = w l G T W } | ",
"R T I B j 4 o * 6 8 - q y u y y y y y y y y y y y y y y y y y y u u 8   F n.Z.D.J.H.A.m.J @   6 0 6 *   : p c I T E ] | ",
"R R U C n 5 % ; 6 8 8 q y y y y y y y y y y y y y y y y y t y y y y y y q ; J m.N.M.P r ; y q 9 9 6 &   1 p z G I E } | ",
"E R U N b a % = * - 6 8 q t y u y y y y y y y y y y y y y y y y y y y u 9   u J K J S   @ r 0 8 - & O   1 g x I R ] } | ",
"W R U n b a 1     & 6 8 8 q y y y y y y y y y y y y y y y y y y y y y y u u u q t t y y q 8 8 8 &       2 h c I ] | | | ",
"W W R I c f >     & 8 8 6 8 0 r y y y y y y y y y y y y y y y y y y y y u u q q q q q q 0 - 8 8 &     . i C Y E ] | | | ",
"` ` ` R v f 1 O   & - 8 8 6 8 q y y y y y y y y y y y y y y y y y y y y u u u u u u q 6 8 8 8 - &     % B ( [ { {  .| } ",
"| ] W T G z p =     O - 6 6 6 0 q r u u u u y y y y y y u r u r y y u u y u u y q q 8 6 8 8 - &     . d Z o.{ / | | } } ",
"| | W E R T z 2 O     & 6 6 6 6 6 q r u y r y y y y y y u u u u y y y u y t t t q 6 6 6 8 - &     . 4 B ) O...(  .| } } ",
"| ] E E W G z i : .     & * 6 8 6 6 0 0 0 r u y y u y y u u u u u u u u r q 0 0 8 6 8 9 - O     % h C ) _ o.O.O.X. .} } ",
"| | ] W W R v z p :       & 6 6 6 6 6 6 8 q y y t t t u r t u r t t r t q 8 6 6 8 8 8 - &     . d Z _ #.#.$.1.4.#. .} ' ",
"| ] ` ` ] ! ! I c f , #     O * 6 0 6 6 8 8 0 0 8 8 8 0 0 0 0 6 8 0 8 0 8 6 6 6 6 6 * O     . 4 B C O.1.u.h.a.6.,.+.W W ",
"} | | ] | [ ] Y I M g 3 +     & - 6 6 8 8 8 - - 8 8 6 8 6 6 6 6 6 6 - 6 6 6 8 8 6 6 &       1 h Y O.1.i.j.T.j.a.6.%.| W ",
"} | | {  .{ / Q Q Y M f :       O * 8 8 8 8 8 6 6 8 8 8 6 6 6 6 6 6 8 6 6 6 0 6 - O       . 1 h / 9.s.j.E.E.T.a.t.&.W W ",
"} |  . .+.+...{ { ( ! v i #       & - - - 6 8 8 6 6 6 8 6 6 7 6 8 8 8 8 6 6 - - &   . , 3 3 g M  .u.a.j.j.T.l.a.<.&.| W ",
"} }  .*.*.>.1.#.o.o.o./ c i # .         O - 6 8 6 8 8 6 6 0 7 6 8 8 7 6 6 *         % k k b U { #.2.6.6.t.a.a.6.:.%.' ' ",
"} } | *.:.9.5.7.#.#.>.+./ c p 2 : +       & - - 6 * * - - * * * - * * * *   . @ . o d Z ^ ) #.6.:.=.*.*.=.:.:.*.%. .} } ",
"} } | =.7.r.a.q.4.4.4.>...Y V h g w : .       O #                         # > < 4 d C o.$.4.5.5.,.+.| } } %.| |  .|  .W ",
"W } &.:.q.s.f.s.i.5.7.#...E V v z z g , . $ , 3 ,         . .     : > . % a d d k B ) $.5.5.q.5.:. .W W W W W } W | | | ",
"W } %.<.a.j.z.j.f.q.$.o.{ Q I v c M I n s j B k d < % % 2 4 3 : 1 g g 3 s B Z Z ~ ^ #.5.4.2.2.2.@. .W W W } | | | | | | ",
"W } &.9.g.R.x.z.s.u.4.#.o./ Y R E ! / ( ) ) ^ Q C B B C B h g h h h g g x Z ..1.5.u.4.$.$.#.-.@.X.| | | %.%.X.X. .| | | ",
"W } &.9.h.T.x.z.a.u.7.=.+.] E W } ] [ #.5.1.O..._ o.O.#._ C B Y U c l z V [ 2.z.j.j.0.#.#.#.+.X. .| | | X.X.+.+. . .W | ",
"' } &.6.t.g.g.a.w.7.1.#.+.{ | W ` [ { 1.a.r.4.@.O.1.9.=.o...{ / Y M v G ` +.t.g.s.a.2.=.@.+.X. .| | |  . .X.X.X. .|  .| ",
"} } %.&.<.9.9.<.<.=.&.&.%. .| } ` ` ..=.9.t.6.*.+.<.7.+.+.*.+.[ ! E E W | &.6.9.6.=.=.&.%.%.| | | | | |  . . . .| | | | ",
"} } | %.%.%.%.%.%.%.%.| | | | } | | | +.%.*.%. . .X.&. . .| | | ] } ] } | %.&.&.&.%. .&.%. .| | | | | | | | | | | | | | ",
"} | } } } ' } } } } } } | | | | | } } ' } ' ' ' ' } } } } } } | | | | | } } } } } } } } } } } | | | | | | } | | | | | | ",
"| | } } ' ' W W W W } } } | | | | | } ' ` ` W W W ` ' ' } } } } } | | | } } W W W W W } } | } | | | | | | | | W | | | | "
};
