/* XPM */
static char *_e817f41b7194c70ae86549b4b733894WhL5RBtBeYXTWwYd[] = {
/* columns rows colors chars-per-pixel */
"60 60 256 2 ",
"   c None",
".  c black",
"X  c #000001",
"o  c #000101",
"O  c #000102",
"+  c #000103",
"@  c #040000",
"#  c #050000",
"$  c #050300",
"%  c #050400",
"&  c #050500",
"*  c #050700",
"=  c #060600",
"-  c #000104",
";  c #010206",
":  c #010207",
">  c #060900",
",  c #060B05",
"<  c #010208",
"1  c #010209",
"2  c #010309",
"3  c #01020A",
"4  c #01030A",
"5  c #01030B",
"6  c #01030C",
"7  c #01040C",
"8  c #01040D",
"9  c #02040C",
"0  c #02050D",
"q  c #02040E",
"w  c #02050E",
"e  c #02050F",
"r  c #060B09",
"t  c #020510",
"y  c #020511",
"u  c #020610",
"i  c #020611",
"p  c #020512",
"a  c #020612",
"s  c #020613",
"d  c #030713",
"f  c #020614",
"g  c #030714",
"h  c #020715",
"j  c #030715",
"k  c #030816",
"l  c #030817",
"z  c #030919",
"x  c #03091A",
"c  c #040918",
"v  c #040A18",
"b  c #040A19",
"n  c #04091A",
"m  c #040A1A",
"M  c #040A1B",
"N  c #040B1B",
"B  c #040B1C",
"V  c #040B1D",
"C  c #040B1E",
"Z  c #040C1D",
"A  c #050C1D",
"S  c #060E1C",
"D  c #070F1C",
"F  c #070F1D",
"G  c #050C1E",
"H  c #050D1E",
"J  c #040C1F",
"K  c #050C1F",
"L  c #050D1F",
"P  c #060D1E",
"I  c #070F1E",
"U  c #040C20",
"Y  c #050C20",
"T  c #050D20",
"R  c #050D21",
"E  c #050E20",
"W  c #050E21",
"Q  c #060E20",
"!  c #060E21",
"~  c #060F21",
"^  c #050D22",
"/  c #050E22",
"(  c #060E22",
")  c #060F22",
"_  c #060F23",
"`  c #050E25",
"'  c #050F25",
"]  c #060F24",
"[  c #070F2A",
"{  c #071020",
"}  c #071021",
"|  c #071022",
" . c #061023",
".. c #061024",
"X. c #071024",
"o. c #061025",
"O. c #071025",
"+. c #061026",
"@. c #061027",
"#. c #081121",
"$. c #081122",
"%. c #081125",
"&. c #081224",
"*. c #081126",
"=. c #081226",
"-. c #071128",
";. c #071129",
":. c #071229",
">. c #07122A",
",. c #07122B",
"<. c #07122C",
"1. c #07132C",
"2. c #07122D",
"3. c #07132D",
"4. c #07132E",
"5. c #07132F",
"6. c #081329",
"7. c #08132B",
"8. c #08142B",
"9. c #08132D",
"0. c #08132E",
"q. c #08132F",
"w. c #08142D",
"e. c #09142D",
"r. c #08142E",
"t. c #08142F",
"y. c #09152F",
"u. c #071030",
"i. c #071434",
"p. c #071435",
"a. c #081430",
"s. c #081431",
"d. c #081531",
"f. c #081432",
"g. c #091532",
"h. c #091633",
"j. c #081534",
"k. c #081634",
"l. c #091634",
"z. c #081635",
"x. c #091635",
"c. c #091636",
"v. c #091637",
"b. c #091737",
"n. c #091738",
"m. c #081639",
"M. c #081739",
"N. c #091739",
"B. c #08143D",
"V. c #091839",
"C. c #09183A",
"Z. c #09183B",
"A. c #09183C",
"S. c #0A193C",
"D. c #0A193D",
"F. c #09193E",
"G. c #081440",
"H. c #0A1B44",
"J. c #0A1B45",
"K. c #0A1B47",
"L. c #081B48",
"P. c #0A1A4F",
"I. c #091C4C",
"U. c #0A1C4E",
"Y. c #0A1B54",
"T. c #0A1C54",
"R. c #0B1E55",
"E. c #0A2257",
"W. c #0A2058",
"Q. c #0C2160",
"!. c #0C2260",
"~. c #0C2361",
"^. c #0B2462",
"/. c #0D2469",
"(. c #0C276C",
"). c #0D276F",
"_. c #0E266E",
"`. c #0E266F",
"'. c #0D286B",
"]. c #0E2771",
"[. c #0E2773",
"{. c #0F297A",
"}. c #0E2C78",
"|. c #0F2B7C",
" X c #0F2F7C",
".X c #102B7F",
"XX c #103080",
"oX c #103380",
"OX c #103484",
"+X c #12358C",
"@X c #12398E",
"#X c #123A8F",
"$X c #123390",
"%X c #113790",
"&X c #123492",
"*X c #143B9A",
"=X c #133E9C",
"-X c #133E9D",
";X c #153C9F",
":X c #153DA1",
">X c #143EA1",
",X c #153EA1",
"<X c #1641A7",
"1X c #1544A5",
"2X c #1745A8",
"3X c #1645AE",
"4X c #1847AF",
"5X c #174AAD",
"6X c #184AB4",
"7X c #194EB5",
"8X c #194EB6",
"9X c #1A53BD",
"0X c #1A53BE",
"qX c #1C55C3",
"wX c #1C57C3",
"eX c #1A52C6",
"rX c #1B55C5",
"tX c #1C56C5",
"yX c #1C57CE",
"uX c #1D5ACB",
"iX c #1E5ECE",
"pX c #1D59D3",
"aX c #1E5ED0",
"sX c #1F5FD1",
"dX c #1E5EDA",
"fX c #1F60D2",
"gX c #2063D6",
"hX c #2064D8",
"jX c #2065DC",
"kX c #2167DC",
"lX c #2165E3",
"zX c #2168E0",
"xX c #2269E0",
"cX c #226AE5",
"vX c #2269E7",
"bX c #2269E8",
"nX c #236DE8",
"mX c #236FE9",
"MX c #236CEA",
"NX c #246FED",
"BX c #2470EA",
"VX c #2471EB",
"CX c #2471EC",
"ZX c #2470ED",
"AX c #2471ED",
"SX c #2472ED",
"DX c #2471EE",
"FX c #2472EE",
"GX c #2573EF",
"HX c #2573F0",
"JX c #2574F0",
"KX c #2574F1",
"LX c #2575F2",
"PX c #2676F2",
"IX c #2676F3",
"UX c #2677F4",
/* pixels */
"                                                                                                                        ",
"                                                                                                                        ",
"                                                                                                                        ",
"                                                                                                                        ",
"                                                                                                                        ",
"                                                                                                                        ",
"                                                                                                                        ",
"                                            .     . . . . . . . .                                                       ",
"                                      . . . . . . . . . . . . . . . . . . .                                             ",
"                                  . . . . . . . . . . . . . . . . . . . . . . .                                         ",
"                                  . . . . - - - - - - - - - - - - - - - - . . . . .                                     ",
"                            . . . . . . . i c c c c c c c c c c c c c c d . . . . . . .                                 ",
"                          . . . . . 5 . 5 K -.6.-.-.-.-.-.-.-.-.-.-.-.6.R 9 . - - . . . .                               ",
"                        . . . . . i K c B 1.j.j.j.j.j.j.j.j.j.j.j.j.j.j.3.K c K i . . . . .                             ",
"                      . . . . . 9 / -.6.9.j.V.V.V.V.V.V.V.V.V.V.V.V.V.V.j.6.y.-.R 9 . . . . . .                         ",
"                    . . . . . 9 Z -.b.j.j.n.n.n.n.n.n.n.n.n.n.n.n.n.V.V.V.j.j.j.3.R 9 . . . . .                         ",
"                  . . . . . 8 Y 1.j.V.A.V.n.n.n.n.n.n.n.n.n.n.n.n.n.n.n.n.V.V.A.j.y.R q . . . . .                       ",
"                . . . . . i B 9.j.V.n.V.n.n.n.n.n.n.n.n.n.n.n.n.n.n.n.n.n.n.n.n.V.j.9.K 9 . . . . .                     ",
"              . . . . . 9 R 9.j.V.n.n.n.n.n.n.n.n.n.n.n.n.n.n.n.n.n.n.n.n.n.n.n.n.V.j.9.R i . . . . .                   ",
"              . . . . 9 R 9.n.n.n.n.n.n.n.n.n.n.n.n.n.n.n.n.n.n.n.n.n.n.n.n.n.n.n.n.n.n.9.R i . . . . .                 ",
"            . . . 5 i R 9.j.V.n.n.n.n.n.n.n.n.n.n.n.n.n.n.n.n.n.n.n.n.n.n.n.n.n.n.n.n.V.j.d.R f - . . .                 ",
"          . . . . i R 9.n.n.n.n.n.n.n.n.n.n.n.n.n.n.n.n.n.n.n.n.n.n.n.n.n.n.n.n.n.n.n.n.n.n.9.| f . . .                 ",
"        . . . . . i R y.n.A.n.n.n.n.n.n.n.n.n.n.n.n.n.n.n.n.n.n.n.n.n.n.n.n.n.n.n.n.n.n.V.n.d.| i . . . .               ",
"        . . . . . i R y.n.n.n.n.n.n.n.n.n.n.n.n.n.n.n.n.n.n.n.n.n.n.n.n.n.n.n.V.n.n.n.n.n.n.f.| d . . . .               ",
"          . . 5 k ` 9.j.V.n.n.n.n.n.n.n.n.n.n.n.n.n.n.n.n.n.n.n.n.n.n.n.n.n.d.%.#.%.g.n.V.n.x.d.o.k 2 . . .             ",
"          . . 9 R y.n.V.n.n.n.n.n.n.n.n.n.n.n.n.n.n.n.n.n.n.n.n.n.n.n.n.n.j.A.J.K.K.D.j.x.n.V.n.d.| f . . .             ",
"        . . . i R y.n.A.n.n.n.n.n.n.n.n.n.n.n.n.n.n.n.n.n.n.n.n.n.n.n.A.| $ G.[..X.XY.$ > V.D.n.y.R i . . .             ",
"      . . . . i R 9.n.n.n.n.n.n.n.n.n.n.n.n.n.n.n.n.n.n.n.n.n.n.n.n.n.f.n.L.XX2X6X4X#XW.n.j.x.V.1.R i . . .             ",
"      . . . . i R 9.j.n.n.n.n.n.n.n.n.n.n.n.n.n.n.n.n.n.n.n.n.n.n.V.#.$ ^.,XqXgXkXjXuX4X}.= > V.d.| i . . . .           ",
"      . . . . 9 R 9.V.V.n.n.n.n.n.n.n.n.n.n.n.n.n.n.n.n.n.n.n.n.n.j.f.u.#XyXMXGXUXLXMXdX1XI.[ j.9.R f . . . .           ",
"      . . . . i R 9.n.n.n.n.n.n.n.n.n.n.n.n.n.n.n.n.n.n.n.n.n.n.j.6.R..X8XzXDXDXDXDXDXnXwX+X~.j.#.R i . . . .           ",
"      . . . . i R 9.n.V.n.n.n.n.n.n.n.n.n.n.n.n.n.n.n.n.n.n.n.n.d.#.~.%XqXVXPXVXVXDXLXDXsX:X].d.F R i . . . .           ",
"      . . . . 9 R 9.V.V.n.n.n.n.n.n.n.n.n.n.n.n.n.n.n.n.n.n.n.n.j.#.~.$XqXmXLXDXDXVXDXGXsX;X_.d.K | i . . . .           ",
"      . . . . i R 1.d.j.n.n.n.n.n.n.n.n.n.n.n.n.n.n.n.n.n.n.n.n.j.y.U.].5XjXNXDXGXGXDXcX9XXXT.y.#.R i . . . .           ",
"      . . . . f R o.` 3.n.n.n.n.n.n.n.n.n.n.n.n.n.n.n.n.n.n.n.n.n.n.%.& OXeXlXDXLXGXcXpX=Xj.$ o.| R f . . .             ",
"        . . . i | | K y.n.V.n.n.n.n.n.n.n.n.n.n.n.n.n.n.n.n.n.n.n.N.%.& W.%X8XiXgXgX9X=X_.r & R %.o.l . . .             ",
"        . . . i R | R 9.n.A.V.n.n.n.n.n.n.n.n.n.n.n.n.n.n.n.n.n.n.n.n.n.9.K _.*X<X,X Xi.| V.9.R o.R i . .               ",
"        . . . 5 k K R 6.1.j.n.n.n.n.n.n.n.n.n.n.n.n.n.n.n.n.n.n.n.n.V.A.%.& N./.]._.P.& , 3.1.| B j 2 . . .             ",
"        . . . . . i R o.` 1.n.n.n.n.n.n.n.n.n.n.n.n.n.n.n.n.n.n.n.n.n.n.n.n.n.d.j.j.n.n.9.| ` | k . . . .               ",
"          . . . . f R %.R -.1.j.V.n.n.n.n.n.n.n.n.n.n.n.n.n.n.n.n.n.n.n.n.V.j.y.8.y.y.1.-.R o.o.k . . . .               ",
"          . . . . i R o.o.R R y.j.n.n.n.n.n.n.n.n.n.n.n.n.n.V.j.n.n.n.n.n.n.n.n.b.b.1.` R | o.R f . . .                 ",
"              . . - 9 K | o.R o.1.j.A.V.V.n.n.n.n.n.n.n.n.n.V.V.n.n.n.n.n.V.A.V.d.9.o.| o.o.B i - . . .                 ",
"              . . . . i R | | R R y.j.j.j.n.n.n.n.n.n.n.n.n.V.V.n.n.V.n.n.j.j.n.y.R R | ` R i . . . .                   ",
"              . . . . - 9 N o.o.| o.9.6.9.j.V.V.V.V.V.V.V.V.V.V.V.V.V.V.j.9.-.6.o.` o.%.K 9 - . . .                     ",
"                . . . . . i R R | R R K ` 1.j.j.j.j.j.j.j.j.b.j.j.j.j.n.y.R K R R | R K i . . . .                       ",
"                  . . . . . 9 c o.| o.| R -.6.%.6.-.-.-.6.%.-.-.6.-.-.-.o.o.| | o.o.K 8 . . . . .                       ",
"                    . . . . . i K R o.o.o.| R #.R R R | R R R R #.R R R | R o.o.R K i . . . . .                         ",
"                      . . . . . 5 c o.%.o.R R o.| | ` o.` | | o.` R o.| ` | o.#.K 2 . . . . . .                         ",
"                        . . . . . i K m V R | o.o.` o.` | ` R o.| ` o.o.R c B K f . . . . . .                           ",
"                          . . . . . - . 5 V o.o.R ` | o.| o.o.` | o.o.` K 5 . . . . . . . .                             ",
"                            . . . . . . . i c c V m m m m m m m c m B B f . . . . . .                                   ",
"                                . . . . . - . . . . . . . . . . . . . . . . . . . .                                     ",
"                                    . . . . . . . . . . . . . . . . . . . . . . . .                                     ",
"                                      . . . . . . . . . . . . . . . . . . . . .                                         ",
"                                              . . . . . . . . .     . . .                                               ",
"                                                                                                                        ",
"                                                                                                                        ",
"                                                                                                                        ",
"                                                                                                                        ",
"                                                                                                                        "
};
